<?xml version="1.0" standalone="no"?>
<!DOCTYPE svg PUBLIC "-//W3C//DTD SVG 1.1//EN" "http://www.w3.org/Graphics/SVG/1.1/DTD/svg11.dtd" >
<svg xmlns="http://www.w3.org/2000/svg">
<metadata>
This is a custom SVG font generated by IcoMoon.
<iconset grid="14"></iconset>
</metadata>
<defs>
<font id="snf-font" horiz-adv-x="448" >
<font-face units-per-em="448" ascent="384" descent="-64" />
<missing-glyph horiz-adv-x="448" />
<glyph class="hidden" unicode="&#xf000;" d="M0,384L 448 -64L0 -64 z" horiz-adv-x="0" />
<glyph unicode="&#x28;" d="M 224.001,384L0,160L 140,160L 140-63.999L 308-64L 308,160L 448,160 z"  />
<glyph unicode="&#x2a;" d="M 371-64L 77-64 c-11.598,0-21,9.402-21,21c0,30.127, 12.717,66.589, 34.019,97.537c 17.803,25.864, 39.674,45.334, 63.297,56.704
		c-10.412,9.469-19.379,21.011-26.472,34.178c-11.375,21.115-17.389,45.521-17.389,70.581c0,34.828, 11.464,67.735, 32.281,92.658
		C 163.464,334.673, 192.679,349, 224,349s 60.536-14.327, 82.265-40.342c 20.816-24.924, 32.281-57.83, 32.281-92.658
		c0-25.060-6.013-49.466-17.388-70.581c-7.094-13.167-16.061-24.709-26.473-34.178c 23.622-11.371, 45.494-30.84, 63.297-56.704
		C 379.283,23.589, 392-12.873, 392-43C 392-54.598, 382.598-64, 371-64z M 100.657-22l 246.685,0 
		c-4.036,17.211-12.477,36.043-23.958,52.723c-18.136,26.349-40.764,43.585-63.717,48.53c-9.671,2.084-16.576,10.636-16.576,20.529
		l0,15.003 c0,7.551, 4.054,14.521, 10.618,18.253c 26.022,14.802, 42.837,47.366, 42.837,82.961c0,50.178-32.543,91-72.545,91
		c-40.002,0-72.545-40.822-72.545-91c0-35.595, 16.815-68.159, 42.837-82.961c 6.563-3.734, 10.617-10.702, 10.617-18.253l0-15.003 
		c0-9.894-6.905-18.445-16.576-20.529c-22.952-4.946-45.581-22.181-63.717-48.53C 113.134,14.043, 104.695-4.789, 100.657-22z"  />
<glyph unicode="&#x71;" d="M 422.422,278.412l-4.396-4.396l-80.164,80.206l 4.382,4.382c0,0, 19.194,25.382, 46.494,25.382
	c 12.026,0, 25.648-4.942, 39.886-19.18C 475.58,317.85, 422.422,278.412, 422.422,278.412z M 391.706,247.682L 118.776-25.374l0-0.014 l-0.028-0.014L 118.72-25.402 L0-64
	l 38.584,118.776l0,0 l0,0.014l0,0.042l 0.028,0 L 311.556,327.902l 3.528-3.542 M 38.64-25.346l 59.318,17.066l-40.516,43.148L 38.64-25.346z"  />
<glyph unicode="&#x65;" d="M 284-62.739l-58.31,82.381l-58.278-82.381l-9.28,100.48L 66.502-4.48l 42.208,91.686L 8.192,96.506l 82.406,58.259L 8.186,213.005
			l 100.518,9.299L 66.496,313.978l 91.635-42.221l 9.28,100.512l 58.278-82.406l 58.31,82.406l 9.248-100.512l 91.699,42.221l-42.24-91.667
			l 100.48-9.299l-82.381-58.246l 82.381-58.259l-100.48-9.299l 42.24-91.686l-91.699,42.227L 284-62.739z M 169.216,56.941l 7.757-84.006
			l 48.717,68.87l 48.742-68.87l 7.731,84.006l 76.659-35.302L 323.52,98.278l 84,7.776l-68.87,48.704l 68.87,48.691l-84,7.776
			l 35.309,76.621l-76.659-35.296L 274.432,336.582l-48.742-68.883L 176.973,336.582L 169.216,252.557l-76.595,35.296l 35.277-76.621L 43.878,203.456
			l 68.896-48.691l-68.896-48.704l 84.019-7.776l-35.283-76.64L 169.216,56.941z"  />
<glyph unicode="&#x47;" d="M 155.437,26.113L 155.437,270.046 c0,6.597, 2.565,64.622, 76.024,64.622c 73.985,0, 78.218-58.532, 78.218-63.889l0-158.93 l 53.65,0 
	l-0.006,161.579c-1.889,36.957-36.593,106.098-130.751,106.098c-94.534,0-128.557-71.050-128.557-108.741l0-244.614 l-34.256,0 l0-85.685 l 308.438,0 l0,85.685 L 155.437,26.171 z"  />
<glyph unicode="&#x46;" d="M 356.192,22.126l-0.013,252.055c-1.844,36.262-33.606,107.832-126.044,107.832c-92.807,0-123.895-66.090-123.895-103.098
	l0-256.795 l-33.665,0 l0-84.14 l 302.893,0 l0,84.14 L 356.192,22.12 z M 156.677,278.175c0,6.512, 2.519,63.486, 74.66,63.486c 72.667,0, 76.809-57.441, 76.809-62.752l0-256.788 l-151.424,0 L 156.677,278.175 z"  />
<glyph unicode="&#x6b;" d="M 310.208,376.173L 143.635,142.925L 253.83,142.925L 204.909-17.786L 376.48,215.398L 274.24,215.398 			z"  />
<glyph unicode="&#x6f;" d="M 223.744-57.6C 103.853-57.6, 6.317,39.923, 6.317,159.802c0,119.891, 97.536,217.434, 217.427,217.434c 119.917,0, 217.478-97.536, 217.478-217.434
			C 441.222,39.923, 343.661-57.6, 223.744-57.6z M 223.744,364.429c-112.832,0-204.627-91.802-204.627-204.634C 19.117,46.982, 110.912-44.8, 223.744-44.8
			c 112.858,0, 204.678,91.782, 204.678,204.602C 428.422,272.634, 336.602,364.429, 223.744,364.429zM 199.872,254.285c0,14.931, 8.518,22.387, 25.549,22.387c 17.062,0, 25.581-7.456, 25.581-22.387c0-7.098-2.131-12.634-6.381-16.602
			c-4.269-3.942-10.682-5.914-19.2-5.914C 208.397,231.776, 199.872,239.283, 199.872,254.285zM 201.875,185.914L 248.838,185.914L 248.838,42.957L 201.875,42.957z"  />
<glyph unicode="&#x77;" d="M 412.8-60.8l-390.4,0 l0,102.4 l 166.4,0 l0,38.4 l-147.2,0 l0,288 l 352,0 l0-288 l-128,0 l0-38.4 l 147.2,0 L 412.8-60.8 z M 35.2-48l 364.8,0 l0,76.8 l-147.2,0 l0,64 l 128,0 l0,262.4 l-326.4,0 l0-262.4 l 147.2,0 l0-64 l-166.4,0 L 35.2-48 z"  />
<glyph unicode="&#x76;" d="M 252.173,371.213c-5.459,5.459-12.704,8.454-20.416,8.454c-7.712,0-14.957-3.008-20.397-8.454
			c-5.446-5.446-8.442-12.678-8.435-20.39c 0.006-7.699, 3.014-14.931, 8.461-20.358c 5.427-5.453, 12.666-8.448, 20.378-8.448
			c 7.706,0, 14.95,3.002, 20.422,8.448C 263.379,341.702, 263.379,359.974, 252.173,371.213z M 243.136,339.52c-6.074-6.054-16.646-6.080-22.701,0
			c-3.034,3.027-4.704,7.046-4.71,11.322c0,4.282, 1.664,8.301, 4.691,11.334c 3.027,3.034, 7.053,4.698, 11.341,4.698
			c 4.294,0, 8.333-1.677, 11.36-4.698C 249.35,355.917, 249.35,345.754, 243.136,339.52zM 56.314,136.986c 7.731,0, 14.989,3.034, 20.397,8.493c 5.44,5.389, 8.442,12.595, 8.461,20.288c 0.019,7.744-2.976,15.014-8.435,20.474
			c-5.446,5.459-12.678,8.461-20.384,8.461c-7.699,0-14.944-3.002-20.403-8.454c-11.245-11.264-11.245-29.574, 0.006-40.832
			C 41.402,139.981, 48.634,136.986, 56.314,136.986z M 44.992,177.203c 3.040,3.034, 7.072,4.704, 11.354,4.704c 4.275,0, 8.294-1.67, 11.328-4.704
			c 3.040-3.040, 4.704-7.085, 4.691-11.398c-0.006-4.269-1.67-8.256-4.71-11.27c-3.027-3.066-7.059-4.742-11.341-4.742
			c-4.269,0-8.288,1.67-11.315,4.685C 38.739,160.736, 38.739,170.931, 44.992,177.203zM 151.578,37.286c-7.693,0-14.938-2.989-20.403-8.435c-5.459-5.472-8.448-12.736-8.429-20.461c 0.019-7.693, 3.034-14.912, 8.474-20.32
			c 5.44-5.427, 12.678-8.41, 20.39-8.41c 7.706,0, 14.95,2.982, 20.429,8.422c 11.162,11.206, 11.168,29.485-0.032,40.8
			C 166.515,34.304, 159.264,37.286, 151.578,37.286z M 162.989-2.854c-6.074-6.042-16.672-6.054-22.746,0
			c-3.021,3.002-4.691,7.008-4.698,11.277c-0.013,4.301, 1.651,8.352, 4.672,11.373c 3.040,3.034, 7.072,4.691, 11.36,4.691
			c 4.294,0, 8.352-1.67, 11.373-4.659C 169.178,13.542, 169.184,3.354, 162.989-2.854zM 404.435,81.139C 398.982,86.592, 391.731,89.6, 384.032,89.6c-7.706,0-14.944-3.008-20.384-8.461c-11.194-11.194-11.2-29.472,0-40.781
			c 5.446-5.44, 12.685-8.429, 20.397-8.429s 14.944,2.995, 20.416,8.461C 415.61,51.661, 415.603,69.946, 404.435,81.139z M 395.386,49.414
			c-6.048-6.054-16.653-6.010-22.669-0.019c-6.234,6.285-6.246,16.467-0.013,22.701C 375.731,75.13, 379.757,76.8, 384.032,76.8
			c 4.282,0, 8.314-1.67, 11.347-4.704C 401.594,65.862, 401.581,55.68, 395.386,49.414zM 377.485,258.214c 16.704,0, 28.826,10.95, 28.826,26.035c0,15.93-12.934,28.89-28.826,28.89c-15.878,0-28.794-12.954-28.794-28.89
			C 348.691,268.922, 360.531,258.214, 377.485,258.214z M 377.485,300.339c 8.838,0, 16.026-7.219, 16.026-16.090c0-9.766-8.634-13.235-16.026-13.235
			c-7.379,0-15.994,3.469-15.994,13.235C 361.491,293.12, 368.666,300.339, 377.485,300.339zM 59.706,129.299c-15.91,0-28.858-12.909-28.858-28.774c0-15.93, 12.941-28.89, 28.858-28.89c 15.878,0, 28.794,12.954, 28.794,28.89
			C 88.499,116.397, 75.584,129.299, 59.706,129.299z M 59.706,84.435c-8.851,0-16.058,7.219-16.058,16.090c0,8.806, 7.2,15.974, 16.058,15.974
			c 8.819,0, 15.994-7.168, 15.994-15.974C 75.699,91.654, 68.525,84.435, 59.706,84.435zM 260.973,1.997c-15.878,0-28.8-12.934-28.8-28.838c0-15.936, 12.922-28.902, 28.8-28.902c 15.923,0, 28.883,12.96, 28.883,28.902
			C 289.856-10.938, 276.902,1.997, 260.973,1.997z M 260.973-42.938c-8.819,0-16,7.226-16,16.102c0,8.845, 7.174,16.038, 16,16.038
			c 8.87,0, 16.083-7.194, 16.083-16.038C 277.056-35.866, 269.997-42.938, 260.973-42.938zM 333.843,194.349c-15.91,0-28.851-12.922-28.851-28.8c0-15.898, 12.941-28.832, 28.851-28.832c 15.891,0, 28.819,12.934, 28.819,28.832
			C 362.662,181.434, 349.734,194.349, 333.843,194.349z M 333.843,149.517c-8.851,0-16.051,7.194-16.051,16.032c0,8.826, 7.2,16, 16.051,16
			c 8.832,0, 16.019-7.174, 16.019-16C 349.862,156.71, 342.675,149.517, 333.843,149.517zM 56.307,256.902c 7.731,0, 14.989,3.034, 20.397,8.493c 5.44,5.389, 8.442,12.595, 8.461,20.288c 0.019,7.744-2.976,15.014-8.435,20.474
			c-5.446,5.459-12.678,8.461-20.384,8.461c-7.699,0-14.944-3.002-20.403-8.454c-11.245-11.264-11.245-29.574, 0.006-40.838
			C 41.402,259.891, 48.634,256.902, 56.307,256.902z M 44.992,297.114c 3.040,3.034, 7.072,4.704, 11.354,4.704c 4.275,0, 8.294-1.67, 11.328-4.704
			c 3.040-3.040, 4.704-7.085, 4.691-11.398c-0.006-4.269-1.67-8.256-4.71-11.27c-6.042-6.112-16.589-6.112-22.656-0.064
			C 38.739,280.646, 38.739,290.842, 44.992,297.114zM 260.87,1.99l-34.394,149.619l 130.394-81.606c 1.338,3.994, 3.488,7.763, 6.624,10.95L 239.11,158.797l 66.726,0.122
		c-0.512,2.138-0.845,4.346-0.845,6.637c0,2.118, 0.262,4.173, 0.698,6.163l-69.44-0.128l 123.699,91.539
		c-3.725,2.432-6.643,5.683-8.57,9.581L 224.301,178.669l 11.59,143.757c-1.363-0.198-2.726-0.403-4.128-0.403
		c-2.989,0-5.862,0.582-8.627,1.453l-11.789-146.163L 82.899,274.534c-1.434-3.373-3.507-6.483-6.189-9.139
		c-0.429-0.435-0.947-0.755-1.402-1.165l 122.272-92.557l-113.133,0.397c 0.448-2.054, 0.73-4.147, 0.723-6.304
		c-0.006-2.227-0.326-4.384-0.819-6.496l 100.563-0.352L 83.264,116.979c 2.438-3.482, 4.064-7.52, 4.774-11.878l 116.896,48.237l-48.416-116.531
		c 4.269-0.73, 8.269-2.413, 11.808-4.934l 46.701,112.403l 33.395-145.286C 252.205,0.845, 256.397,1.978, 260.87,1.99z"  />
<glyph unicode="&#x75;" d="M 239.872,223.802c-22.918,0-41.562-18.662-41.562-41.6c0-22.906, 18.643-41.536, 41.562-41.536c 22.912,0, 41.549,18.63, 41.549,41.536
			C 281.421,205.139, 262.784,223.802, 239.872,223.802z M 239.872,153.466c-15.859,0-28.762,12.896-28.762,28.736c0,15.878, 12.902,28.8, 28.762,28.8
			c 15.853,0, 28.749-12.922, 28.749-28.8C 268.621,166.355, 255.725,153.466, 239.872,153.466zM 435.053,182.202c0,107.603-87.558,195.149-195.181,195.149c-107.61,0-195.155-87.546-195.155-195.149
			c0-13.075, 1.318-25.837, 3.776-38.202l-3.776,0 c0-22.547, 4.326-44.589, 12.096-65.286l-43.539-22.758l 48.717-57.971l 25.267,26.848
			c 35.75-45.299, 90.771-75.802, 152.448-75.802c 107.514,0, 194.976,92.563, 194.976,194.963l-3.411,0 C 433.734,156.365, 435.053,169.126, 435.053,182.202
			z M 62.528,17.235l-29.203,34.758l 28.352,14.81l 11.328,5.92l 14.445,7.552l 0.96,0.499l 66.707,34.854L 62.528,17.235z M 63.859,97.971
			c 1.997-4.154, 4.154-8.224, 6.438-12.211l-2.118-1.114C 66.56,89.024, 65.101,93.466, 63.859,97.971z M 239.706-38.163
			c-58.355,0-110.336,29.114-143.693,72.307l 7.872,8.365c 35.174-34.266, 83.123-55.456, 135.994-55.456c 76.787,0, 143.328,44.576, 175.168,109.197
			C 393.472,21.19, 323.066-38.163, 239.706-38.163z M 239.872-0.147c-49.472,0-94.355,19.866-127.232,51.962l 77.792,82.675l-7.629,10.061
			l-101.171-52.87c-15.334,26.688-24.122,57.594-24.122,90.522c0,100.55, 81.805,182.349, 182.355,182.349c 100.563,0, 182.381-81.798, 182.381-182.349
			S 340.435-0.147, 239.872-0.147z"  />
<glyph unicode="&#x6d;" d="M 266.81-54.848L 177.645-54.848 L 177.645,114.938 L 0.666,114.938 L 0.666,201.299 l 176.979,0 L 177.645,373.197 l 89.171,0 l0-171.891 l 176.979,0 l0-86.362 L 266.81,114.944 L 266.81-54.848 z M 190.445-42.048l 63.571,0 
				L 254.016,127.738 l 176.979,0 l0,60.762 L 254.010,188.499 L 254.010,360.397 l-63.571,0 l0-171.891 L 13.466,188.506 l0-60.762 l 176.979,0 L 190.445-42.048 z"  />
<glyph unicode="&#x66;" d="M 438.4-67.2l-435.2,0 l0,441.6 l 435.2,0 L 438.4-67.2 z M 16-54.4l 409.6,0 l0,416 l-409.6,0 L 16-54.4 zM 342.4,16l-236.8,0 l0,57.6 l 96,0 l0,44.8 l-96,0 l0,185.6 l 236.8,0 l0-185.6 l-96,0 l0-44.8 l 96,0 L 342.4,16 z M 118.4,28.8l 211.2,0 l0,32 l-96,0 l0,70.4 l 96,0 l0,160 l-211.2,0 l0-160 l 96,0 l0-70.4 l-96,0 L 118.4,28.8 z"  />
<glyph unicode="&#x45;" d="M 22.586,362.874c-6.95,0-12.602-5.651-12.602-12.64c0-6.963, 5.651-12.589, 12.602-12.589c 6.912,0, 12.608,5.626, 12.608,12.589
			C 35.194,357.222, 29.498,362.874, 22.586,362.874zM 22.586,320.045c-6.95,0-12.602-5.664-12.602-12.646c0-6.918, 5.651-12.576, 12.602-12.576c 6.912,0, 12.608,5.658, 12.608,12.576
			C 35.194,314.381, 29.498,320.045, 22.586,320.045zM 22.586,277.178c-6.95,0-12.602-5.683-12.602-12.602c0-6.989, 5.651-12.646, 12.602-12.646c 6.912,0, 12.608,5.658, 12.608,12.646
			C 35.194,271.494, 29.498,277.178, 22.586,277.178zM 22.586,234.31c-6.95,0-12.602-5.683-12.602-12.634c0-6.957, 5.651-12.621, 12.602-12.621c 6.912,0, 12.608,5.664, 12.608,12.621
			C 35.194,228.634, 29.498,234.31, 22.586,234.31zM 22.586,191.424c-6.95,0-12.602-5.651-12.602-12.614c0-6.925, 5.651-12.582, 12.602-12.582c 6.912,0, 12.608,5.658, 12.608,12.582
			C 35.194,185.773, 29.498,191.424, 22.586,191.424zM 22.586,148.595c-6.95,0-12.602-5.651-12.602-12.608c0-6.95, 5.651-12.646, 12.602-12.646c 6.912,0, 12.608,5.696, 12.608,12.646
			C 35.194,142.944, 29.498,148.595, 22.586,148.595zM 22.586,105.722c-6.95,0-12.602-5.645-12.602-12.634c0-6.938, 5.651-12.595, 12.602-12.595c 6.912,0, 12.608,5.658, 12.608,12.595
			C 35.194,100.077, 29.498,105.722, 22.586,105.722zM 22.586,62.835c-6.95,0-12.602-5.613-12.602-12.602c0-6.963, 5.651-12.621, 12.602-12.621c 6.912,0, 12.608,5.658, 12.608,12.621
			C 35.194,57.222, 29.498,62.835, 22.586,62.835zM 22.586,19.981c-6.95,0-12.602-5.645-12.602-12.608c0-6.989, 5.651-12.589, 12.602-12.589c 6.912,0, 12.608,5.6, 12.608,12.589
			C 35.194,14.336, 29.498,19.981, 22.586,19.981zM 22.586-22.886c-6.95,0-12.602-5.651-12.602-12.602c0-6.963, 5.651-12.614, 12.602-12.614c 6.912,0, 12.608,5.651, 12.608,12.614
			C 35.194-28.538, 29.498-22.886, 22.586-22.886zM 65.69,362.874c-6.97,0-12.634-5.651-12.634-12.64c0-6.963, 5.664-12.589, 12.634-12.589c 6.912,0, 12.576,5.626, 12.576,12.589
			C 78.266,357.222, 72.602,362.874, 65.69,362.874zM 65.69,320.045c-6.97,0-12.634-5.664-12.634-12.646c0-6.918, 5.664-12.576, 12.634-12.576c 6.912,0, 12.576,5.658, 12.576,12.576
			C 78.266,314.381, 72.602,320.045, 65.69,320.045zM 65.69,277.178c-6.97,0-12.634-5.683-12.634-12.602c0-6.989, 5.664-12.646, 12.634-12.646c 6.912,0, 12.576,5.658, 12.576,12.646
			C 78.266,271.494, 72.602,277.178, 65.69,277.178zM 65.69,234.31c-6.97,0-12.634-5.683-12.634-12.634c0-6.957, 5.664-12.621, 12.634-12.621c 6.912,0, 12.576,5.664, 12.576,12.621
			C 78.266,228.634, 72.602,234.31, 65.69,234.31zM 65.69,191.424c-6.97,0-12.634-5.651-12.634-12.614c0-6.925, 5.664-12.582, 12.634-12.582c 6.912,0, 12.576,5.658, 12.576,12.582
			C 78.266,185.773, 72.602,191.424, 65.69,191.424zM 65.69,148.595c-6.97,0-12.634-5.651-12.634-12.608c0-6.95, 5.664-12.646, 12.634-12.646c 6.912,0, 12.576,5.696, 12.576,12.646
			C 78.266,142.944, 72.602,148.595, 65.69,148.595zM 65.69,105.722c-6.97,0-12.634-5.645-12.634-12.634c0-6.938, 5.664-12.595, 12.634-12.595c 6.912,0, 12.576,5.658, 12.576,12.595
			C 78.266,100.077, 72.602,105.722, 65.69,105.722zM 65.69,62.835c-6.97,0-12.634-5.613-12.634-12.602c0-6.963, 5.664-12.621, 12.634-12.621c 6.912,0, 12.576,5.658, 12.576,12.621
			C 78.266,57.222, 72.602,62.835, 65.69,62.835zM 65.69,19.981c-6.97,0-12.634-5.645-12.634-12.608c0-6.989, 5.664-12.589, 12.634-12.589c 6.912,0, 12.576,5.6, 12.576,12.589
			C 78.266,14.336, 72.602,19.981, 65.69,19.981zM 65.69-22.886c-6.97,0-12.634-5.651-12.634-12.602c0-6.963, 5.664-12.614, 12.634-12.614c 6.912,0, 12.576,5.651, 12.576,12.614
			C 78.266-28.538, 72.602-22.886, 65.69-22.886zM 108.768,362.874c-6.95,0-12.589-5.651-12.589-12.64c0-6.963, 5.638-12.589, 12.589-12.589c 6.938,0, 12.589,5.626, 12.589,12.589
			C 121.35,357.222, 115.706,362.874, 108.768,362.874zM 108.768,320.045c-6.95,0-12.589-5.664-12.589-12.646c0-6.918, 5.638-12.576, 12.589-12.576c 6.938,0, 12.589,5.658, 12.589,12.576
			C 121.35,314.381, 115.706,320.045, 108.768,320.045zM 108.768,19.981c-6.95,0-12.589-5.645-12.589-12.608c0-6.989, 5.638-12.589, 12.589-12.589c 6.938,0, 12.589,5.6, 12.589,12.589
			C 121.35,14.336, 115.706,19.981, 108.768,19.981zM 96.16-35.494A12.608,12.608 1620 1 1 121.376-35.49400000000003A12.608,12.608 1620 1 1 96.16-35.49400000000003zM 151.859,362.874c-6.925,0-12.589-5.651-12.589-12.64c0-6.963, 5.664-12.589, 12.589-12.589c 6.97,0, 12.614,5.626, 12.614,12.589
			C 164.474,357.222, 158.822,362.874, 151.859,362.874zM 151.859,320.045c-6.925,0-12.589-5.664-12.589-12.646c0-6.918, 5.664-12.576, 12.589-12.576c 6.97,0, 12.614,5.658, 12.614,12.576
			C 164.474,314.381, 158.822,320.045, 151.859,320.045zM 151.859,19.981c-6.925,0-12.589-5.645-12.589-12.608c0-6.989, 5.664-12.589, 12.589-12.589c 6.97,0, 12.614,5.6, 12.614,12.589
			C 164.474,14.336, 158.822,19.981, 151.859,19.981zM 151.859-22.886c-6.925,0-12.589-5.651-12.589-12.602c0-6.963, 5.664-12.614, 12.589-12.614c 6.97,0, 12.614,5.651, 12.614,12.614
			C 164.474-28.538, 158.822-22.886, 151.859-22.886zM 194.976,362.874c-6.957,0-12.602-5.651-12.602-12.64c0-6.963, 5.645-12.589, 12.602-12.589c 6.912,0, 12.57,5.626, 12.57,12.589
			C 207.546,357.222, 201.888,362.874, 194.976,362.874zM 194.976,320.045c-6.957,0-12.602-5.664-12.602-12.646c0-6.918, 5.645-12.576, 12.602-12.576c 6.912,0, 12.57,5.658, 12.57,12.576
			C 207.546,314.381, 201.888,320.045, 194.976,320.045zM 194.976,19.981c-6.957,0-12.602-5.645-12.602-12.608c0-6.989, 5.645-12.589, 12.602-12.589c 6.912,0, 12.57,5.6, 12.57,12.589
			C 207.546,14.336, 201.888,19.981, 194.976,19.981zM 194.976-22.886c-6.957,0-12.602-5.651-12.602-12.602c0-6.963, 5.645-12.614, 12.602-12.614c 6.912,0, 12.57,5.651, 12.57,12.614
			C 207.546-28.538, 201.888-22.886, 194.976-22.886zM 238.067,362.874c-6.97,0-12.589-5.651-12.589-12.64c0-6.963, 5.619-12.589, 12.589-12.589c 6.938,0, 12.57,5.626, 12.57,12.589
			C 250.637,357.222, 245.005,362.874, 238.067,362.874zM 238.067,320.045c-6.97,0-12.589-5.664-12.589-12.646c0-6.918, 5.619-12.576, 12.589-12.576c 6.938,0, 12.57,5.658, 12.57,12.576
			C 250.637,314.381, 245.005,320.045, 238.067,320.045zM 238.067,19.981c-6.97,0-12.589-5.645-12.589-12.608c0-6.989, 5.619-12.589, 12.589-12.589c 6.938,0, 12.57,5.6, 12.57,12.589
			C 250.637,14.336, 245.005,19.981, 238.067,19.981zM 225.459-35.494A12.608,12.608 1620 1 1 250.675-35.49400000000003A12.608,12.608 1620 1 1 225.459-35.49400000000003zM 281.133,362.874c-6.931,0-12.576-5.651-12.576-12.64c0-6.963, 5.651-12.589, 12.576-12.589c 6.944,0, 12.595,5.626, 12.595,12.589
			C 293.728,357.222, 288.077,362.874, 281.133,362.874zM 281.133,320.045c-6.931,0-12.576-5.664-12.576-12.646c0-6.918, 5.651-12.576, 12.576-12.576c 6.944,0, 12.595,5.658, 12.595,12.576
			C 293.728,314.381, 288.077,320.045, 281.133,320.045zM 281.133,19.981c-6.931,0-12.576-5.645-12.576-12.608c0-6.989, 5.651-12.589, 12.576-12.589c 6.944,0, 12.595,5.6, 12.595,12.589
			C 293.728,14.336, 288.077,19.981, 281.133,19.981zM 281.133-22.886c-6.931,0-12.576-5.651-12.576-12.602c0-6.963, 5.651-12.614, 12.576-12.614c 6.944,0, 12.595,5.651, 12.595,12.614
			C 293.728-28.538, 288.077-22.886, 281.133-22.886zM 324.243,362.874c-6.97,0-12.595-5.651-12.595-12.64c0-6.963, 5.626-12.589, 12.595-12.589c 6.925,0, 12.608,5.626, 12.608,12.589
			C 336.851,357.222, 331.168,362.874, 324.243,362.874zM 324.243,320.045c-6.97,0-12.595-5.664-12.595-12.646c0-6.918, 5.626-12.576, 12.595-12.576c 6.925,0, 12.608,5.658, 12.608,12.576
			C 336.851,314.381, 331.168,320.045, 324.243,320.045zM 324.243,19.981c-6.97,0-12.595-5.645-12.595-12.608c0-6.989, 5.626-12.589, 12.595-12.589c 6.925,0, 12.608,5.6, 12.608,12.589
			C 336.851,14.336, 331.168,19.981, 324.243,19.981zM 324.243-22.886c-6.97,0-12.595-5.651-12.595-12.602c0-6.963, 5.626-12.614, 12.595-12.614c 6.925,0, 12.608,5.651, 12.608,12.614
			C 336.851-28.538, 331.168-22.886, 324.243-22.886zM 367.366,362.874c-6.989,0-12.64-5.651-12.64-12.64c0-6.963, 5.651-12.589, 12.64-12.589c 6.931,0, 12.57,5.626, 12.57,12.589
			C 379.942,357.222, 374.304,362.874, 367.366,362.874zM 367.366,320.045c-6.989,0-12.64-5.664-12.64-12.646c0-6.918, 5.651-12.576, 12.64-12.576c 6.931,0, 12.57,5.658, 12.57,12.576
			C 379.942,314.381, 374.304,320.045, 367.366,320.045zM 367.366,277.178c-6.989,0-12.64-5.683-12.64-12.602c0-6.989, 5.651-12.646, 12.64-12.646c 6.931,0, 12.57,5.658, 12.57,12.646
			C 379.942,271.494, 374.304,277.178, 367.366,277.178zM 367.366,234.31c-6.989,0-12.64-5.683-12.64-12.634c0-6.957, 5.651-12.621, 12.64-12.621c 6.931,0, 12.57,5.664, 12.57,12.621
			C 379.942,228.634, 374.304,234.31, 367.366,234.31zM 367.366,191.424c-6.989,0-12.64-5.651-12.64-12.614c0-6.925, 5.651-12.582, 12.64-12.582c 6.931,0, 12.57,5.658, 12.57,12.582
			C 379.942,185.773, 374.304,191.424, 367.366,191.424zM 367.366,148.595c-6.989,0-12.64-5.651-12.64-12.608c0-6.95, 5.651-12.646, 12.64-12.646c 6.931,0, 12.57,5.696, 12.57,12.646
			C 379.942,142.944, 374.304,148.595, 367.366,148.595zM 367.366,105.722c-6.989,0-12.64-5.645-12.64-12.634c0-6.938, 5.651-12.595, 12.64-12.595c 6.931,0, 12.57,5.658, 12.57,12.595
			C 379.942,100.077, 374.304,105.722, 367.366,105.722zM 367.366,62.835c-6.989,0-12.64-5.613-12.64-12.602c0-6.963, 5.651-12.621, 12.64-12.621c 6.931,0, 12.57,5.658, 12.57,12.621
			C 379.942,57.222, 374.304,62.835, 367.366,62.835zM 367.366,19.981c-6.989,0-12.64-5.645-12.64-12.608c0-6.989, 5.651-12.589, 12.64-12.589c 6.931,0, 12.57,5.6, 12.57,12.589
			C 379.942,14.336, 374.304,19.981, 367.366,19.981zM 367.366-22.886c-6.989,0-12.64-5.651-12.64-12.602c0-6.963, 5.651-12.614, 12.64-12.614c 6.931,0, 12.57,5.651, 12.57,12.614
			C 379.942-28.538, 374.304-22.886, 367.366-22.886zM 410.438,362.874c-6.97,0-12.595-5.651-12.595-12.64c0-6.963, 5.626-12.589, 12.595-12.589c 6.938,0, 12.544,5.626, 12.544,12.589
			C 422.982,357.222, 417.376,362.874, 410.438,362.874zM 410.438,320.045c-6.97,0-12.595-5.664-12.595-12.646c0-6.918, 5.626-12.576, 12.595-12.576c 6.938,0, 12.544,5.658, 12.544,12.576
			C 422.982,314.381, 417.376,320.045, 410.438,320.045zM 410.438,277.178c-6.97,0-12.595-5.683-12.595-12.602c0-6.989, 5.626-12.646, 12.595-12.646c 6.938,0, 12.544,5.658, 12.544,12.646
			C 422.982,271.494, 417.376,277.178, 410.438,277.178zM 410.438,234.31c-6.97,0-12.595-5.683-12.595-12.634c0-6.957, 5.626-12.621, 12.595-12.621c 6.938,0, 12.544,5.664, 12.544,12.621
			C 422.982,228.634, 417.376,234.31, 410.438,234.31zM 410.438,191.424c-6.97,0-12.595-5.651-12.595-12.614c0-6.925, 5.626-12.582, 12.595-12.582c 6.938,0, 12.544,5.658, 12.544,12.582
			C 422.982,185.773, 417.376,191.424, 410.438,191.424zM 410.438,148.595c-6.97,0-12.595-5.651-12.595-12.608c0-6.95, 5.626-12.646, 12.595-12.646c 6.938,0, 12.544,5.696, 12.544,12.646
			C 422.982,142.944, 417.376,148.595, 410.438,148.595zM 410.438,105.722c-6.97,0-12.595-5.645-12.595-12.634c0-6.938, 5.626-12.595, 12.595-12.595c 6.938,0, 12.544,5.658, 12.544,12.595
			C 422.982,100.077, 417.376,105.722, 410.438,105.722zM 410.438,62.835c-6.97,0-12.595-5.613-12.595-12.602c0-6.963, 5.626-12.621, 12.595-12.621c 6.938,0, 12.544,5.658, 12.544,12.621
			C 422.982,57.222, 417.376,62.835, 410.438,62.835zM 410.438,19.981c-6.97,0-12.595-5.645-12.595-12.608c0-6.989, 5.626-12.589, 12.595-12.589c 6.938,0, 12.544,5.6, 12.544,12.589
			C 422.982,14.336, 417.376,19.981, 410.438,19.981zM 410.438-22.886c-6.97,0-12.595-5.651-12.595-12.602c0-6.963, 5.626-12.614, 12.595-12.614c 6.938,0, 12.544,5.651, 12.544,12.614
			C 422.982-28.538, 417.376-22.886, 410.438-22.886zM 434.829-58.726L 2.522-58.726 L 2.522,373.536 l 432.307,0 L 434.829-58.726 z M 15.322-45.926l 406.707,0 L 422.029,360.736 L 15.322,360.736 L 15.322-45.926 z M 343.904,32.198l-250.432,0 L 93.472,282.611 l 250.432,0 
			L 343.904,32.198 z M 106.266,44.998l 224.832,0 L 331.098,269.811 l-224.832,0 L 106.266,44.998 zM 317.274,58.803l-197.184,0 L 120.090,255.962 l 197.184,0 L 317.274,58.803 z M 132.89,71.603l 171.584,0 L 304.474,243.162 l-171.584,0 L 132.89,71.603 z"  />
<glyph unicode="&#x48;" d="M 393.6,163.2L 393.6,258.746 c0,3.61, 6.4,9.107, 6.4,15.104l0,17.722 c0,10.688-10.605,18.829-21.286,18.829l-3.277,0 
			c-10.694,0-20.237-8.141-20.237-18.829l0-17.722 c0-5.984, 6.4-11.469, 6.4-15.098L 361.6,163.2 l-352,0 l0-166.4 l 422.4,0 l0,166.4 L 393.6,163.2 z M 371.277,267.981
			c-2.266,1.114-3.277,3.418-3.277,5.869l0,17.722 c0,3.629, 3.802,6.029, 7.437,6.029l 3.277,0 c 3.622,0, 8.486-2.4, 8.486-6.029l0-17.722 
			c0-2.502-0.966-4.749-3.251-5.862L 380.8,266.24l0-103.040 l-6.4,0 L 374.4,266.221 L 371.277,267.981z M 419.2,9.6l-396.8,0 l0,140.8 l 340.947,0 l 27.443,0 L 419.2,150.4 L 419.2,9.6 zM 361.523,81.926c0-10.106, 8.198-18.323, 18.278-18.323c 10.080,0, 18.278,8.218, 18.278,18.323c0,10.093-8.198,18.298-18.278,18.298
			C 369.722,100.224, 361.523,92.019, 361.523,81.926z M 385.28,81.926c0-3.046-2.458-5.523-5.478-5.523s-5.478,2.483-5.478,5.523
			c0,3.034, 2.458,5.498, 5.478,5.498S 385.28,84.954, 385.28,81.926zM 321.28,100.224c-10.080,0-18.285-8.205-18.285-18.298c0-10.106, 8.205-18.323, 18.285-18.323c 10.099,0, 18.31,8.218, 18.31,18.323
			C 339.59,92.019, 331.379,100.224, 321.28,100.224z M 321.28,76.403c-3.027,0-5.485,2.483-5.485,5.523c0,3.034, 2.458,5.498, 5.485,5.498
			c 2.989,0, 5.51-2.522, 5.51-5.498C 326.79,78.88, 324.32,76.403, 321.28,76.403zM 262.739,100.224c-10.080,0-18.278-8.205-18.278-18.298c0-10.106, 8.198-18.323, 18.278-18.323c 10.080,0, 18.278,8.218, 18.278,18.323
			C 281.018,92.019, 272.819,100.224, 262.739,100.224z M 262.739,76.403c-3.021,0-5.478,2.483-5.478,5.523c0,3.034, 2.458,5.498, 5.478,5.498
			s 5.478-2.47, 5.478-5.498C 268.218,78.88, 265.76,76.403, 262.739,76.403z"  />
<glyph unicode="&#x23;" d="M 246.4-60.8l-89.6,0 l0,54.125 l 30.765,18.202L 156.8,29.734l0,29.037 l 30.765,18.202L 156.8,95.187l0,71.040 
			c-49.843,18.33-49.805,56.134-49.766,96.102l0,3.347 c0,59.488, 55.258,111.674, 118.253,111.674c 59.002,0, 100.205-45.926, 100.205-111.674
			c0-45.12-39.136-84.922-79.085-102.272L 246.406-60.8 z M 169.6-48l 64,0 L 233.6,172.026 l 4.045,1.6c 37.293,14.765, 75.046,51.117, 75.046,92.051
			c0,58.221-35.942,98.874-87.405,98.874c-56.173,0-105.453-46.208-105.453-98.874l0-3.36 c-0.038-41.005-0.070-70.637, 45.35-85.446
			l 4.416-1.446l0-72.934 l 43.085-25.51L 169.6,51.475l0-14.438 l 43.085-25.51L 169.6-13.978L 169.6-48 z M 228.653,272.966
			c-19.539,0-35.437,15.917-35.437,35.482c0,19.558, 15.898,35.462, 35.437,35.462c 19.546,0, 35.443-15.904, 35.443-35.462
			C 264.096,288.89, 248.192,272.966, 228.653,272.966z M 228.653,331.11c-12.48,0-22.637-10.17-22.637-22.662c0-12.506, 10.157-22.682, 22.637-22.682
			c 12.486,0, 22.643,10.176, 22.643,22.682C 251.296,320.941, 241.139,331.11, 228.653,331.11z"  />
<glyph unicode="&#x40;" d="M 297.331,228.531c0,25.664-15.328,48.378-39.066,57.869l-5.67-14.17c 17.626-7.059, 29.466-24.621, 29.466-43.706
			c0-25.901-21.203-46.963-47.264-46.963c-25.741,0-46.682,21.069-46.682,46.963c0,18.426, 9.709,34.067, 25.978,41.862l-6.598,13.766
			c-21.363-10.234-34.643-31.552-34.643-55.629c0-34.317, 27.789-62.234, 61.939-62.234C 269.293,166.291, 297.331,194.208, 297.331,228.531zM 227.2,299.635L 240.192,299.635L 240.192,215.174L 227.2,215.174zM 272.678,46.259l0,45.472 l 129.939,0 L 402.618,377.6 L 51.782,377.6 l0-285.869 l 149.434,0 l0-45.472 L 32.288,46.259 L 32.288-51.2 l 389.818,0 L 422.106,46.259 L 272.678,46.259 z M 415.61-44.698L 38.79-44.698 L 38.79,39.757 
			l 168.922,0 l0,58.477 L 58.278,98.234 L 58.278,371.104 l 337.843,0 l0-272.87 L 266.182,98.234 l0-58.477 l 149.434,0 L 415.616-44.698 z"  />
<glyph unicode="&#x21;" d="M 296.934,231.437c0,25.274-15.699,48.531-39.072,57.882l-5.67-14.176c 17.638-7.053, 29.472-24.621, 29.472-43.712
			c0-25.894-21.203-46.963-47.258-46.963c-25.741,0-46.688,21.069-46.688,46.963c0,14.33, 5.933,26.931, 16.198,35.507l 2.336-19.718l 15.162,1.798
			L 216.32,291.904l-42.771,1.907l-0.685-15.251l 20.102-0.902c-12.915-11.456-20.506-28.045-20.506-46.234c0-34.31, 27.782-62.234, 61.946-62.234
			C 268.89,169.203, 296.934,197.12, 296.934,231.437zM 272.678,39.859l0,45.472 l 129.939,0 L 402.618,371.2 L 51.782,371.2 l0-285.869 l 149.434,0 l0-45.472 L 32.288,39.859 L 32.288-57.6 l 389.818,0 L 422.106,39.859 L 272.678,39.859 z M 415.61-51.098L 38.79-51.098 L 38.79,33.357 
			l 168.922,0 l0,58.477 L 58.278,91.834 L 58.278,364.704 l 337.843,0 l0-272.87 L 266.182,91.834 l0-58.477 l 149.434,0 L 415.616-51.098 z"  />
<glyph unicode="&#x30;" d="M 391.686,184.198c0,93.242-75.885,169.107-169.165,169.107c-93.254,0-169.133-75.866-169.133-169.107
		c0-5.325, 0.282-10.586, 0.762-15.789c-0.493-5.203-0.762-10.47-0.762-15.802c0-21.338, 4.019-41.734, 11.27-60.55l-37.555-19.616l 39.174-46.541
		l 36.634,38.925c 30.63-30.714, 72.915-49.792, 119.61-49.792c 75.366,0, 139.36,49.562, 161.165,117.798c-9.786-80.333-78.362-142.771-161.299-142.771
		c-52.73,0-99.648,25.242-129.363,64.25l-4.442-4.717c 30.931-40.058, 79.392-65.933, 133.805-65.933c 93.171,0, 168.96,75.795, 168.96,168.947
		c0,4.64-0.23,9.222-0.608,13.76C 391.354,172.237, 391.686,178.182, 391.686,184.198z M 60.813,134.637c 3.923-12.781, 9.344-24.922, 16.019-36.218
		l-6.438-3.36C 65.632,107.597, 62.336,120.851, 60.813,134.637z M 66.541,35.526l-29.402,34.944l 122.515,63.994L 66.541,35.526z M 222.528,21.434
		c-44.998,0-85.786,18.368-115.277,48l 70.061,74.451l-3.814,5.030l-90.989-47.526c-14.413,24.275-22.72,52.589-22.72,82.81
		C 59.795,273.92, 132.794,346.906, 222.528,346.906c 78.406,0, 144.026-55.699, 159.366-129.6l-45.882-38.797l-64.307-28.73l-47.411,36.243l-10.566,43.341
		l 28.48,22.586l-3.974,5.011l-26.176-20.755l-4.64,19.008l-6.214-1.51L 217.030,188.8L 176,188.8 l0-6.4 l 42.579,0 l 0.026-0.096l 49.37-37.741l-6.579-113.664
		l 6.387-0.378l 2.56,44.282l 34.605-26.861l 3.923,5.050l-38.080,29.555l 3.558,61.402l 62.97,28.134l 42.010-31.405
		C 360.243,72, 297.203,21.434, 222.528,21.434z M 381.037,147.392l-38.266,28.602l 40.435,34.054c 1.35-8.422, 2.074-17.050, 2.074-25.85
		C 385.286,171.539, 383.789,159.232, 381.037,147.392z"  />
<glyph unicode="&#x39;" d="M 335.11,159.942L 338.464,165.395L 282.131,200.013L 222.778,231.859L 236.134,284.979L 312.16,294.592L 311.36,300.941L 231.002,290.784L 214.266,224.218L 183.68,284.8L 131.2,284.8L 131.2,278.4L 179.744,278.4L 211.693,215.098L 132.378,165.382L 135.776,159.955L 176,185.171L 176,150.4L 182.4,150.4L 182.4,189.184L 217.594,211.245L 221.171,225.459L 275.648,196.237L 245.011,159.578L 249.926,155.475L 281.299,193.018 		zM 265.6,35.2l0,44.8 l 128,0 l0,281.6 l-345.6,0 l0-281.6 l 147.2,0 l0-44.8 l-166.4,0 l0-96 l 384,0 l0,96 L 265.6,35.2 z M 406.4-54.4l-371.2,0 l0,83.2 l 166.4,0 l0,57.6 l-147.2,0 l0,268.8 l 332.8,0 l0-268.8 l-128,0 l0-57.6 l 147.2,0 L 406.4-54.4 z"  />
<glyph unicode="&#x38;" d="M 403.661,253.613c-11.226,0-20.358-9.152-20.358-20.403c0-0.813, 0.134-1.574, 0.23-2.349l-66.266-19.104
		c-3.27,6.867-10.234,11.661-18.342,11.661c-11.232,0-20.378-9.114-20.378-20.314c0-11.232, 9.146-20.378, 20.378-20.378
		c 11.226,0, 20.358,9.146, 20.358,20.378c0,1.434-0.154,2.816-0.435,4.166l 65.805,18.97c 1.235-3.091, 3.341-5.658, 6.080-7.597l-45.952-70.611
		c-7.731,4.986-19.443,4.224-25.894-2.298c-7.258-7.251-7.757-18.701-1.67-26.714l-54.112-32.922c-3.661,3.475-8.595,5.645-14.035,5.645
		c-7.091,0-13.338-3.661-16.979-9.184l-33.274,24.090l0,0l-13.101,9.491l 13.274,30.688l 30.016-0.013c 0.544-4.499, 2.47-8.672, 5.709-11.91
		c 3.827-3.872, 8.934-6.010, 14.387-6.010c 5.44,0, 10.566,2.131, 14.464,6.003c 7.834,7.904, 7.827,20.813-0.038,28.794
		c-5.344,5.286-14.131,6.701-21.376,4.352l-10.912,21.376c 3.827,3.712, 6.221,8.883, 6.221,14.611c0,11.206-9.158,20.326-20.403,20.326
		c-11.213,0-20.333-9.12-20.333-20.326c0-8.864, 5.696-16.346, 13.574-19.155l-14.394-33.299l-30.010,0.013l-18.925,98.874
		c 7.078,2.758, 11.584,8.902, 11.584,16.832c0,11.238-9.133,20.39-20.352,20.39c-11.226,0-20.358-9.152-20.358-20.39
		c0-9.299, 6.176-16.16, 15.475-17.946l-18.118-62.298c-1.28,0.237-2.586,0.378-3.91,0.378c-5.478,0-10.726-2.125-14.355-5.805
		c-3.866-3.808-6.003-8.909-6.003-14.342c-0.013-5.453, 2.106-10.566, 5.965-14.419c 0.576-0.582, 1.229-1.037, 1.862-1.536L 53.018,151.488
		c-1.165,10.125-9.69,18.048-20.128,18.048c-11.226,0-20.358-9.133-20.358-20.352c0-11.226, 9.133-20.365, 20.358-20.365
		c 10.426,0, 18.944,7.91, 20.122,18.029L 134.4,146.842l 31.814-22.458l 1.882-9.805c-3.13-0.87-6.054-2.349-8.333-4.608
		c-3.853-3.859-5.971-8.96-5.971-14.394c 0.019-5.459, 2.15-10.566, 6.003-14.394c 3.834-3.853, 8.947-5.971, 14.4-5.971
		s 10.56,2.118, 14.381,5.965c 3.859,3.853, 5.984,8.96, 5.984,14.406c0,3.744-1.075,7.309-2.963,10.438l 38.394-27.795
		c-0.768-2.138-1.261-4.403-1.261-6.803c0-11.251, 9.126-20.403, 20.346-20.403c 11.251,0, 20.403,9.152, 20.403,20.403
		c0,4.058-1.222,7.814-3.29,10.989l 54.432,33.133c 3.597-2.874, 7.981-4.518, 12.672-4.518c 5.44,0, 10.541,2.112, 14.387,5.952
		c 7.667,7.744, 7.821,20.115, 0.576,28.051l 46.624,71.373c 2.611-1.018, 5.549-1.613, 8.787-1.613c 12,0, 20.39,7.578, 20.39,18.426
		C 424.051,244.461, 414.899,253.613, 403.661,253.613z M 298.925,187.482c-8.621,0-15.622,7.008-15.622,15.622c0,8.582, 7.008,15.565, 15.622,15.565
		c 8.608,0, 15.603-6.982, 15.603-15.565C 314.534,194.49, 307.533,187.482, 298.925,187.482z M 249.107,164.717c 4.224,0, 8.262-1.6, 11.066-4.371
		c 6.016-6.118, 6.029-16.032, 0.032-22.093c-5.965-5.939-16.237-5.958-22.125,0.006c-2.938,2.931-4.563,6.842-4.563,11.014
		c-0.006,4.173, 1.613,8.102, 4.55,11.046C 240.851,163.117, 244.877,164.717, 249.107,164.717z M 201.466,204.038
		c0,8.589, 6.989,15.578, 15.584,15.578c 8.634,0, 15.654-6.989, 15.654-15.578c0-8.634-7.027-15.648-15.654-15.648
		C 208.454,188.39, 201.466,195.405, 201.466,204.038z M 214.982,183.853c 0.691-0.077, 1.363-0.211, 2.067-0.211c 3.782,0, 7.283,1.101, 10.317,2.899
		l 10.426-20.422c-1.12-0.698-2.163-1.51-3.091-2.445c-3.283-3.296-5.203-7.539-5.715-12.102l-27.955,0.013L 214.982,183.853z
		 M 32.896,133.574c-8.608,0-15.603,7.002-15.603,15.61c0,8.602, 7.002,15.603, 15.603,15.603s 15.603-7.002, 15.603-15.603
		C 48.499,140.576, 41.498,133.574, 32.896,133.574z M 179.482,114.797c-2.189,0.518-4.442,0.71-6.701,0.576l-0.954,4.966L 179.482,114.797z
		 M 193.811,146.835l-12.038-27.834l-11.264,8.154l-3.782,19.686L 193.811,146.835z M 163.757,132.064l-20.518,14.867l 17.862-0.134L 163.757,132.064z
		 M 122.586,267.302c0,8.627, 7.002,15.635, 15.603,15.635c 8.602,0, 15.603-7.014, 15.603-15.635c0-8.186-6.266-13.69-15.603-13.69
		C 128.858,253.613, 122.586,259.11, 122.586,267.302z M 100.243,156.218c-2.957,2.95-4.582,6.874-4.57,11.059c0,4.16, 1.626,8.064, 4.602,10.995
		c 2.778,2.803, 6.79,4.416, 11.008,4.416c 4.224,0, 8.25-1.619, 11.066-4.454c 2.938-2.906, 4.55-6.803, 4.55-10.97
		c0-4.179-1.619-8.096-4.576-11.034C 116.435,150.317, 106.125,150.317, 100.243,156.218z M 122.675,150.4c 1.062,0.723, 2.074,1.542, 3.002,2.477
		c 0.16,0.16, 0.282,0.365, 0.435,0.531l 4.589-3.008L 122.675,150.4 z M 128.922,157.248c 1.728,3.027, 2.726,6.426, 2.726,10.010
		c0,5.446-2.118,10.534-5.946,14.323c-1.811,1.83-4.013,3.264-6.432,4.262l 18.515,63.046c 0.141,0, 0.269-0.032, 0.41-0.032
		c 1.408,0, 2.752,0.128, 4.051,0.326l 18.746-97.594l-24.269,0.013L 128.922,157.248z M 140.493,146.95l 0.064-0.051L 140.493,146.95L 140.493,146.95z
		 M 185.216,84.538c-5.862-5.901-16.173-5.907-22.074,0.006c-2.957,2.938-4.595,6.861-4.602,11.046c0,4.154, 1.626,8.077, 4.57,11.027
		c 2.816,2.797, 6.848,4.397, 11.066,4.397c 4.218,0, 8.243-1.6, 11.053-4.39c 2.957-2.95, 4.582-6.867, 4.582-11.034
		C 189.805,91.418, 188.179,87.494, 185.216,84.538z M 249.069,55.776c-8.602,0-15.597,7.021-15.597,15.648c0,8.589, 6.995,15.578, 15.597,15.578
		c 8.634,0, 15.648-6.989, 15.648-15.578C 264.717,62.797, 257.702,55.776, 249.069,55.776z M 344.314,120.326
		c-5.901-5.882-16.218-5.837-22.054-0.026c-6.061,6.125-6.067,16.032-0.013,22.093c 2.797,2.803, 6.81,4.416, 11.034,4.416
		c 4.211,0, 8.237-1.613, 11.040-4.422C 350.362,136.333, 350.355,126.432, 344.314,120.326z M 403.661,219.539c-9.338,0-15.603,5.491-15.603,13.677
		c0,8.634, 7.002,15.648, 15.603,15.648c 8.627,0, 15.635-7.021, 15.635-15.648C 419.302,225.030, 413.018,219.539, 403.661,219.539z"  />
<glyph unicode="&#x37;" d="M 405.024,100.55c-3.373,0-6.56-0.678-9.594-1.702c-24.224,32.8-79.098,68.166-132.582,79.808
		c 0.045,0.659, 0.192,1.267, 0.192,1.946c0,2.054-0.211,4.058-0.608,6.003c 57.286,12.883, 98.413-10.464, 120.71-29.21
		c-8.557-11.77-7.635-28.39, 2.963-39.072c 5.69-5.677, 13.267-8.8, 21.35-8.8c 8.045,0, 15.622,3.123, 21.357,8.826
		c 11.693,11.814, 11.686,30.957-0.013,42.662c-5.459,5.485-13.242,8.634-21.363,8.634c-7.629,0-14.886-2.861-20.262-7.744
		c-23.642,19.565-67.162,44.115-126.669,30.752c-3.014,6.918-8.544,12.467-15.424,15.546c 19.635,36.243, 59.142,83.616, 100.365,101.92
		c 5.28-6.714, 13.946-10.81, 24.614-10.81c 17.798,0, 30.234,11.232, 30.234,27.315c0,16.672-13.562,30.24-30.234,30.24
		c-16.646,0-30.189-13.562-30.189-30.24c0-3.987, 0.774-7.674, 2.195-10.97c-43.155-19.366-83.354-67.904-103.238-105.395
		c-1.062,0.218-2.189,0.237-3.29,0.339c 4.179,32.774, 15.648,83.405, 46.566,112.179c 5.35-5.984, 13.555-9.632, 23.565-9.632
		c 17.773,0, 30.189,11.232, 30.189,27.309c0,16.678-13.542,30.253-30.189,30.253c-16.653,0-30.195-13.568-30.195-30.253
		c0-4.506, 1.062-8.57, 2.854-12.173c-33.626-30.381-45.382-83.859-49.459-117.805c-2.746-0.365-5.414-0.96-7.878-2.016
		c-16.378,26.886-45.926,48.518-87.462,63.283c-18.547,6.592-36.538,10.784-50.854,13.44c 0.294,8.115-2.528,16.333-8.646,22.534
		c-5.478,5.44-13.28,8.557-21.395,8.557c-8.128,0-15.91-3.13-21.357-8.595c-11.757-11.782-11.738-30.925, 0.019-42.662
		c 5.67-5.734, 13.242-8.902, 21.338-8.902c 8.090,0, 15.706,3.155, 21.459,8.902c 3.878,3.923, 6.342,8.704, 7.622,13.734
		c 38.618-7.29, 104.883-26.394, 133.683-73.485c-4.883-3.482-8.646-8.371-10.784-14.074c-58.733,15.104-120.544,2.208-152.301-23.757
		c-3.629,1.453-7.584,2.227-11.616,2.227c-8.102,0-15.891-3.117-21.382-8.57c-5.709-5.709-8.851-13.286-8.851-21.35
		c 0.013-8.090, 3.174-15.674, 8.896-21.35c 4.134-4.134, 9.267-6.88, 14.854-8.102c-0.986-0.762-2.016-1.485-2.893-2.374
		c-5.728-5.658-8.883-13.21-8.883-21.267c-0.026-8.090, 3.11-15.686, 8.845-21.395c 5.683-5.702, 13.254-8.838, 21.325-8.838
		c 8.077,0, 15.667,3.149, 21.37,8.87c 5.715,5.683, 8.858,13.254, 8.858,21.318c0,7.059-2.522,13.638-6.918,18.963
		c 27.405,25.914, 77.843,66.81, 127.021,71.802c 0.563-5.056, 2.355-9.549, 5.254-13.229c-31.2-33.402-58.822-86.496-73.997-118.765
		c-1.965,0.634-3.994,1.088-6.093,1.312c-16.736,1.811-31.45-10.368-33.21-26.816c-1.766-16.55, 10.259-31.456, 26.81-33.229
		c 1.082-0.115, 2.144-0.166, 3.206-0.166c 15.475,0, 28.378,11.603, 30.003,26.995c 0.858,8.006-1.466,15.872-6.534,22.157
		c-2.342,2.899-5.178,5.235-8.301,7.066c 15.085,31.91, 42.496,84.486, 72.704,116.986c 5.19-3.968, 12.006-6.336, 20.006-6.336
		c 5.664,0, 10.694,1.242, 15.046,3.309c 39.322-52.954, 27.795-138.534, 27.648-139.514l 1.414-0.205c-15.827-0.902-28.454-13.926-28.454-29.965
		c0-16.678, 13.53-30.259, 30.163-30.259c 16.678,0, 30.259,13.574, 30.259,30.259c0,15.494-11.846,28.141-26.963,29.805
		c 0.563,4.23, 3.77,30.957-0.032,63.379c-3.814,32.55-13.741,59.398-28.774,79.712c 4.122,3.226, 7.072,7.514, 8.621,12.608
		c 52.666-11.379, 104.41-46.362, 127.552-76.422c-8.64-5.306-14.464-14.746-14.464-25.581c0-16.666, 13.555-30.227, 30.214-30.227
		c 16.646,0, 30.189,13.555, 30.189,30.227C 435.213,87.040, 421.67,100.55, 405.024,100.55z M 407.443,163.232c 6.426,0, 12.563-2.458, 16.832-6.752
		c 9.222-9.229, 9.216-24.32, 0.013-33.626c-9.037-8.966-24.736-8.915-33.638-0.026c-9.242,9.318-9.254,24.41-0.019,33.658
		C 394.893,160.774, 401.018,163.232, 407.443,163.232z M 370.061,350.438c 13.139,0, 23.834-10.694, 23.834-23.84c0-12.506-9.574-20.915-23.834-20.915
		c-14.003,0-23.789,8.602-23.789,20.915C 346.272,339.744, 356.941,350.438, 370.061,350.438z M 305.677,364.282c 13.12,0, 23.789-10.701, 23.789-23.853
		c0-12.506-9.562-20.909-23.789-20.909c-14.234,0-23.795,8.397-23.795,20.909C 281.882,353.581, 292.557,364.282, 305.677,364.282z M 69.562,269.498
		c-9.043-9.030-24.762-9.056-33.722,0c-9.274,9.261-9.286,24.346-0.026,33.632c 4.256,4.269, 10.387,6.714, 16.826,6.714
		s 12.595-2.445, 16.864-6.675C 78.688,293.856, 78.707,278.752, 69.562,269.498z M 143.411,31.571c 3.994-4.947, 5.824-11.149, 5.152-17.466
		c-1.382-12.954-12.986-22.483-26.17-21.139c-13.043,1.402-22.528,13.152-21.133,26.195c 1.293,12.128, 11.45,21.267, 23.622,21.267
		c 0.845,0, 1.696-0.045, 2.547-0.134C 133.741,39.616, 139.418,36.518, 143.411,31.571z M 302.477-13.075c0-13.158-10.701-23.859-23.859-23.859
		c-13.101,0-23.763,10.701-23.763,23.859c0,13.088, 10.662,23.738, 23.763,23.738C 291.776,10.662, 302.477,0.013, 302.477-13.075z M 16.877,139.718
		c0,6.349, 2.477,12.32, 6.97,16.813c 4.288,4.256, 10.438,6.701, 16.864,6.701c 6.419,0, 12.557-2.438, 16.826-6.682
		c 4.512-4.506, 7.002-10.483, 7.002-16.826c0-6.355-2.483-12.339-6.989-16.838c-8.992-9.011-24.672-8.992-33.658,0.006
		C 19.373,127.373, 16.89,133.35, 16.877,139.718z M 69.466,69.786c-9.005-9.024-24.672-9.037-33.658-0.032
		c-4.512,4.493-6.989,10.477-6.963,16.851c0,6.342, 2.483,12.282, 7.008,16.755c 4.224,4.288, 10.342,6.746, 16.774,6.746
		c 6.438,0, 12.582-2.47, 16.864-6.79c 4.48-4.448, 6.95-10.394, 6.95-16.742S 73.971,74.266, 69.466,69.786z M 71.334,110.035
		c-3.584,2.803-7.776,4.838-12.358,5.786c 1.056,0.806, 2.131,1.581, 3.085,2.534c 5.715,5.709, 8.864,13.293, 8.864,21.363
		c0,8.058-3.149,15.642-8.883,21.357c-1.203,1.19-2.547,2.221-3.942,3.181c 33.478,26.554, 95.533,32.416, 144.934,20.512
		c-0.051-0.358-0.070-0.717-0.109-1.082c-28.307-2.752-60.282-16.845-94.15-41.984C 94.022,130.765, 81.261,119.456, 71.334,110.035z
		 M 232.806,159.699c-14.003,0-23.782,8.595-23.782,20.902c0,13.152, 10.669,23.853, 23.782,23.853c 13.146,0, 23.84-10.701, 23.84-23.853
		C 256.646,168.102, 247.066,159.699, 232.806,159.699z M 405.024,46.598c-13.133,0-23.814,10.688-23.814,23.827c0,13.082, 10.682,23.725, 23.814,23.725
		c 13.12,0, 23.789-10.643, 23.789-23.725C 428.813,57.286, 418.144,46.598, 405.024,46.598z"  />
<glyph unicode="&#x78;" d="M 412.8-60.8l-390.4,0 l0,102.4 l 166.4,0 l0,38.4 l-147.2,0 l0,288 l 352,0 l0-288 l-128,0 l0-38.4 l 147.2,0 L 412.8-60.8 z"  />
<glyph unicode="&#x4b;" d="M 252.173,371.213c-5.459,5.459-12.704,8.454-20.416,8.454c-7.712,0-14.957-3.008-20.397-8.454
			c-5.446-5.446-8.442-12.678-8.435-20.39c 0.006-7.699, 3.014-14.931, 8.461-20.358c 5.427-5.453, 12.666-8.448, 20.378-8.448
			c 7.706,0, 14.95,3.002, 20.422,8.448C 263.379,341.702, 263.379,359.974, 252.173,371.213zM 56.314,136.986c 7.731,0, 14.989,3.034, 20.397,8.493c 5.44,5.389, 8.442,12.595, 8.461,20.288c 0.019,7.744-2.976,15.014-8.435,20.474
			c-5.446,5.459-12.678,8.461-20.384,8.461c-7.699,0-14.944-3.002-20.403-8.454c-11.245-11.264-11.245-29.574, 0.006-40.832
			C 41.402,139.981, 48.634,136.986, 56.314,136.986zM 151.578,37.286c-7.693,0-14.938-2.989-20.403-8.435c-5.459-5.472-8.448-12.736-8.429-20.461c 0.019-7.693, 3.034-14.912, 8.474-20.32
			c 5.44-5.427, 12.678-8.41, 20.39-8.41c 7.706,0, 14.95,2.982, 20.429,8.422c 11.162,11.206, 11.168,29.485-0.032,40.8
			C 166.515,34.304, 159.264,37.286, 151.578,37.286zM 404.435,81.139C 398.982,86.592, 391.731,89.6, 384.032,89.6c-7.706,0-14.944-3.008-20.384-8.461c-11.194-11.194-11.2-29.472,0-40.781
			c 5.446-5.44, 12.685-8.429, 20.397-8.429s 14.944,2.995, 20.416,8.461C 415.61,51.661, 415.603,69.946, 404.435,81.139zM 377.485,258.214c 16.704,0, 28.826,10.95, 28.826,26.035c0,15.93-12.934,28.89-28.826,28.89c-15.878,0-28.794-12.954-28.794-28.89
			C 348.691,268.922, 360.531,258.214, 377.485,258.214zM 59.706,129.299c-15.91,0-28.858-12.909-28.858-28.774c0-15.93, 12.941-28.89, 28.858-28.89c 15.878,0, 28.794,12.954, 28.794,28.89
			C 88.499,116.397, 75.584,129.299, 59.706,129.299zM 260.973,1.997c-15.878,0-28.8-12.934-28.8-28.838c0-15.936, 12.922-28.902, 28.8-28.902c 15.923,0, 28.883,12.96, 28.883,28.902
			C 289.856-10.938, 276.902,1.997, 260.973,1.997zM 333.843,194.349c-15.91,0-28.851-12.922-28.851-28.8c0-15.898, 12.941-28.832, 28.851-28.832c 15.891,0, 28.819,12.934, 28.819,28.832
			C 362.662,181.434, 349.734,194.349, 333.843,194.349zM 56.307,256.902c 7.731,0, 14.989,3.034, 20.397,8.493c 5.44,5.389, 8.442,12.595, 8.461,20.288c 0.019,7.744-2.976,15.014-8.435,20.474
			c-5.446,5.459-12.678,8.461-20.384,8.461c-7.699,0-14.944-3.002-20.403-8.454c-11.245-11.264-11.245-29.574, 0.006-40.838
			C 41.402,259.891, 48.634,256.902, 56.307,256.902zM 260.87,1.99l-34.394,149.619l 130.394-81.606c 1.338,3.994, 3.488,7.763, 6.624,10.95L 239.11,158.797l 66.726,0.122
		c-0.512,2.138-0.845,4.346-0.845,6.637c0,2.118, 0.262,4.173, 0.698,6.163l-69.44-0.128l 123.699,91.539
		c-3.725,2.432-6.643,5.683-8.57,9.581L 224.301,178.669l 11.59,143.757c-1.363-0.198-2.726-0.403-4.128-0.403
		c-2.989,0-5.862,0.582-8.627,1.453l-11.789-146.163L 82.899,274.534c-1.434-3.373-3.507-6.483-6.189-9.139
		c-0.429-0.435-0.947-0.755-1.402-1.165l 122.272-92.557l-113.133,0.397c 0.448-2.054, 0.73-4.147, 0.723-6.304
		c-0.006-2.227-0.326-4.384-0.819-6.496l 100.563-0.352L 83.264,116.979c 2.438-3.482, 4.064-7.52, 4.774-11.878l 116.896,48.237l-48.416-116.531
		c 4.269-0.73, 8.269-2.413, 11.808-4.934l 46.701,112.403l 33.395-145.286C 252.205,0.845, 256.397,1.978, 260.87,1.99z"  />
<glyph unicode="&#x4f;" d="M 239.872-12.947c-52.864,0-100.851,21.158-136.032,55.411l-7.846-8.346c 33.363-43.181, 85.357-72.282, 143.712-72.282
			c 83.36,0, 153.773,59.347, 175.334,134.406C 383.2,31.622, 316.659-12.947, 239.872-12.947zM 70.317,85.76c-2.278,3.994-4.461,8.045-6.458,12.205c 1.242-4.512, 2.662-8.966, 4.25-13.357L 70.317,85.76zM 182.803,144.55l 7.629-10.061L 112.602,51.776c 32.89-32.096, 77.792-51.923, 127.27-51.923c 100.563,0, 182.381,81.798, 182.381,182.349
			S 340.435,364.55, 239.872,364.55c-100.55,0-182.355-81.798-182.355-182.349c0-32.928, 8.813-63.814, 24.147-90.509L 182.803,144.55z M 239.872,223.802
			c 22.912,0, 41.549-18.662, 41.549-41.6c0-22.906-18.643-41.536-41.549-41.536c-22.918,0-41.562,18.63-41.562,41.536
			C 198.31,205.139, 216.954,223.802, 239.872,223.802zM 33.325,51.994L 62.528,17.235L 155.11,115.629 		z"  />
<glyph unicode="&#x35;" d="M 247.059,291.2c-0.627,0-1.248,0-1.875,0c-36.845,0-74.56,9.798-75.328,29.946l 12.794-0.173
				c 0.243-6.445, 21.978-18.97, 62.643-19.29c 39.597-0.512, 65.6,10.771, 66.157,18.707l 12.768,0.352C 322.778,300.403, 284.634,291.2, 247.059,291.2zM 246.88,246.4c-0.646,0-1.28,0-1.907,0c-30.643,0-82.803,7.053-83.936,27.616l 12.781,1.197
				c 1.626-4.826, 27.552-13.99, 71.238-14.291c 45.638-0.282, 73.498,9.67, 75.136,14.822l 12.73-2.17C 331.027,252.8, 278.848,246.4, 246.88,246.4zM 247.494,187.072c-1.146,0-2.272,0.006-3.411,0.019c-57.92,0.474-117.222,15.11-118.477,42.17l 12.787,0.589
				c 0.563-12.147, 41.082-29.427, 105.805-29.958c 67.584-0.704, 110.451,16.858, 111.424,29.715l 12.762-0.96C 366.323,201.421, 305.203,187.072, 247.494,187.072
				zM 246.976,121.126c-1.171,0-2.33,0.006-3.494,0.013c-70.662,0.486-142.931,17.082-144.326,47.853l 12.787,0.576
				c 0.646-14.195, 47.891-35.046, 131.635-35.622c 84.115-0.845, 137.325,20.154, 138.566,35.354l 12.755-1.037
				C 392.378,137.427, 317.466,121.126, 246.976,121.126zM 247.36,54.381c-1.453,0-2.893,0.006-4.346,0.019c-79.046,0.461-159.936,18.95-161.574,53.382l 12.787,0.614
				c 0.909-19.078, 62.272-40.685, 148.877-41.197c 90.291-0.678, 155.053,20.915, 156.736,40.851l 12.755-1.075
				C 409.696,72.55, 326.125,54.381, 247.36,54.381zM 247.053-3.718c-0.992,0-1.978,0.006-2.97,0.013c-57.926,0.429-117.229,16.077-118.477,45.126l 12.787,0.55
				c 0.653-15.181, 44.262-32.41, 105.798-32.877c 1.005-0.006, 2.010-0.013, 3.002-0.013c 60.96,0, 107.328,17.037, 108.422,32.672l 12.768-0.902
				C 366.342,11.693, 304.915-3.718, 247.053-3.718zM 246.726-54.4c-0.518,0-1.030,0-1.542,0c-36.794,0-74.381,12.762-75.066,35.45L 182.912-18.56
				c 0.282-9.306, 24.16-22.573, 62.413-23.040c 0.531-0.006, 1.069-0.006, 1.6-0.006c 38.938,0, 63.622,13.293, 64.237,23.027l 12.774-0.806
				C 322.49-42.266, 283.366-54.4, 246.726-54.4zM 247.181,336l-2.842,0 c-11.091,0-108.461,2.374-109.843,28.787l-0.352,7.29l 112.851,0.442l 113.427-0.397l-0.883-8.205
				C 356.301,337.798, 258.336,336, 247.181,336z"  />
<glyph unicode="&#x4e;" d="M 284-62.739l-58.31,82.381l-58.278-82.381l-9.28,100.48L 66.502-4.48l 42.208,91.686L 8.192,96.506l 82.406,58.259L 8.186,213.005
			l 100.518,9.299L 66.496,313.978l 91.635-42.221l 9.28,100.512l 58.278-82.406l 58.31,82.406l 9.248-100.512l 91.699,42.221l-42.24-91.667
			l 100.48-9.299l-82.381-58.246l 82.381-58.259l-100.48-9.299l 42.24-91.686l-91.699,42.227L 284-62.739z"  />
<glyph unicode="&#x34;" d="M 266.81-54.848L 177.645-54.848 L 177.645,114.938 L 0.666,114.938 L 0.666,201.299 l 176.979,0 L 177.645,373.197 l 89.171,0 l0-171.891 l 176.979,0 l0-86.362 L 266.81,114.944 L 266.81-54.848 z"  />
<glyph unicode="&#x33;" d="M 132.89,243.162L 304.474,243.162L 304.474,71.597L 132.89,71.597zM 331.098,269.811l-224.832,0 l0-224.813 l 224.832,0 L 331.098,269.811 z M 317.274,58.803l-197.184,0 L 120.090,255.962 l 197.184,0 L 317.274,58.803 zM 2.522,373.536l0-432.262 l 432.301,0 L 434.822,373.536 L 2.522,373.536 z M 324.243,362.874c 6.925,0, 12.608-5.651, 12.608-12.64c0-6.963-5.683-12.589-12.608-12.589
		c-6.97,0-12.595,5.626-12.595,12.589C 311.648,357.222, 317.274,362.874, 324.243,362.874z M 324.243,320.045c 6.925,0, 12.608-5.664, 12.608-12.646
		c0-6.918-5.683-12.576-12.608-12.576c-6.97,0-12.595,5.658-12.595,12.576C 311.648,314.381, 317.274,320.045, 324.243,320.045z M 281.133,362.874
		c 6.944,0, 12.595-5.651, 12.595-12.64c0-6.963-5.651-12.589-12.595-12.589c-6.918,0-12.576,5.626-12.576,12.589
		C 268.557,357.222, 274.202,362.874, 281.133,362.874z M 281.133,320.045c 6.944,0, 12.595-5.664, 12.595-12.646c0-6.918-5.651-12.576-12.595-12.576
		c-6.918,0-12.576,5.658-12.576,12.576C 268.557,314.381, 274.202,320.045, 281.133,320.045z M 238.067,362.874c 6.938,0, 12.57-5.651, 12.57-12.64
		c0-6.963-5.632-12.589-12.57-12.589c-6.97,0-12.589,5.626-12.589,12.589C 225.478,357.222, 231.098,362.874, 238.067,362.874z M 238.067,320.045
		c 6.938,0, 12.57-5.664, 12.57-12.646c0-6.918-5.632-12.576-12.57-12.576c-6.97,0-12.589,5.658-12.589,12.576
		C 225.478,314.381, 231.098,320.045, 238.067,320.045z M 194.976,362.874c 6.912,0, 12.57-5.651, 12.57-12.64c0-6.963-5.658-12.589-12.57-12.589
		c-6.957,0-12.602,5.626-12.602,12.589C 182.374,357.222, 188.019,362.874, 194.976,362.874z M 194.976,320.045c 6.912,0, 12.57-5.664, 12.57-12.646
		c0-6.918-5.658-12.576-12.57-12.576c-6.957,0-12.602,5.658-12.602,12.576C 182.374,314.381, 188.019,320.045, 194.976,320.045z M 151.859,362.874
		c 6.963,0, 12.614-5.651, 12.614-12.64c0-6.963-5.645-12.589-12.614-12.589c-6.925,0-12.589,5.626-12.589,12.589
		C 139.27,357.222, 144.934,362.874, 151.859,362.874z M 151.859,320.045c 6.963,0, 12.614-5.664, 12.614-12.646c0-6.918-5.645-12.576-12.614-12.576
		c-6.925,0-12.589,5.658-12.589,12.576C 139.27,314.381, 144.934,320.045, 151.859,320.045z M 108.768,362.874c 6.938,0, 12.582-5.651, 12.589-12.64
		c0-6.963-5.651-12.589-12.589-12.589c-6.95,0-12.589,5.626-12.589,12.589C 96.179,357.222, 101.818,362.874, 108.768,362.874z M 108.768,320.045
		c 6.938,0, 12.582-5.664, 12.589-12.646c0-6.918-5.651-12.576-12.589-12.576c-6.95,0-12.589,5.658-12.589,12.576
		C 96.179,314.381, 101.818,320.045, 108.768,320.045z M 22.586-48.102c-6.95,0-12.602,5.651-12.602,12.614c0,6.95, 5.651,12.602, 12.602,12.602
		c 6.912,0, 12.608-5.651, 12.608-12.602C 35.194-42.451, 29.498-48.102, 22.586-48.102z M 22.586-5.21c-6.95,0-12.602,5.6-12.602,12.589
		c0,6.963, 5.651,12.608, 12.602,12.608c 6.912,0, 12.608-5.645, 12.608-12.608C 35.194,0.39, 29.498-5.21, 22.586-5.21z M 22.586,37.613
		c-6.95,0-12.602,5.658-12.602,12.627c0,6.989, 5.651,12.602, 12.602,12.602c 6.912,0, 12.608-5.613, 12.608-12.602
		C 35.194,43.27, 29.498,37.613, 22.586,37.613z M 22.586,80.493c-6.95,0-12.602,5.658-12.602,12.595c0,6.989, 5.651,12.64, 12.602,12.64
		c 6.912,0, 12.608-5.651, 12.608-12.64C 35.194,86.15, 29.498,80.493, 22.586,80.493z M 22.586,123.334c-6.95,0-12.602,5.702-12.602,12.653
		c0,6.957, 5.651,12.608, 12.602,12.608c 6.912,0, 12.608-5.651, 12.608-12.608C 35.194,129.037, 29.498,123.334, 22.586,123.334z M 22.586,166.227
		c-6.95,0-12.602,5.658-12.602,12.582c0,6.963, 5.651,12.614, 12.602,12.614c 6.912,0, 12.608-5.651, 12.608-12.614
		C 35.194,171.885, 29.498,166.227, 22.586,166.227z M 22.586,209.056c-6.95,0-12.602,5.664-12.602,12.621c0,6.95, 5.651,12.634, 12.602,12.634
		c 6.912,0, 12.608-5.677, 12.608-12.634C 35.194,214.72, 29.498,209.056, 22.586,209.056z M 22.586,251.93c-6.95,0-12.602,5.658-12.602,12.646
		c0,6.918, 5.651,12.602, 12.602,12.602c 6.912,0, 12.608-5.683, 12.608-12.602C 35.194,257.587, 29.498,251.93, 22.586,251.93z M 22.586,294.822
		c-6.95,0-12.602,5.658-12.602,12.576c0,6.982, 5.651,12.646, 12.602,12.646c 6.912,0, 12.608-5.664, 12.608-12.646
		C 35.194,300.48, 29.498,294.822, 22.586,294.822z M 22.586,337.645c-6.95,0-12.602,5.626-12.602,12.589c0,6.989, 5.651,12.64, 12.602,12.64
		c 6.912,0, 12.608-5.651, 12.608-12.64C 35.194,343.27, 29.498,337.645, 22.586,337.645z M 65.69-48.102c-6.97,0-12.634,5.651-12.634,12.614
		c0,6.95, 5.664,12.602, 12.634,12.602c 6.912,0, 12.576-5.651, 12.576-12.602C 78.266-42.451, 72.602-48.102, 65.69-48.102z M 65.69-5.21
		c-6.97,0-12.634,5.6-12.634,12.589c0,6.963, 5.664,12.608, 12.634,12.608c 6.912,0, 12.576-5.645, 12.576-12.608
		C 78.266,0.39, 72.602-5.21, 65.69-5.21z M 65.69,37.613c-6.97,0-12.634,5.658-12.634,12.627c0,6.989, 5.664,12.602, 12.634,12.602
		c 6.912,0, 12.576-5.613, 12.576-12.602C 78.266,43.27, 72.602,37.613, 65.69,37.613z M 65.69,80.493c-6.97,0-12.634,5.658-12.634,12.595
		c0,6.989, 5.664,12.64, 12.634,12.64c 6.912,0, 12.576-5.651, 12.576-12.64C 78.266,86.15, 72.602,80.493, 65.69,80.493z M 65.69,123.334
		c-6.97,0-12.634,5.702-12.634,12.653c0,6.957, 5.664,12.608, 12.634,12.608c 6.912,0, 12.576-5.651, 12.576-12.608
		C 78.266,129.037, 72.602,123.334, 65.69,123.334z M 65.69,166.227c-6.97,0-12.634,5.658-12.634,12.582c0,6.963, 5.664,12.614, 12.634,12.614
		c 6.912,0, 12.576-5.651, 12.576-12.614C 78.266,171.885, 72.602,166.227, 65.69,166.227z M 65.69,209.056c-6.97,0-12.634,5.664-12.634,12.621
		c0,6.95, 5.664,12.634, 12.634,12.634c 6.912,0, 12.576-5.677, 12.576-12.634C 78.266,214.72, 72.602,209.056, 65.69,209.056z M 65.69,251.93
		c-6.97,0-12.634,5.658-12.634,12.646c0,6.918, 5.664,12.602, 12.634,12.602c 6.912,0, 12.576-5.683, 12.576-12.602
		C 78.266,257.587, 72.602,251.93, 65.69,251.93z M 65.69,294.822c-6.97,0-12.634,5.658-12.634,12.576c0,6.982, 5.664,12.646, 12.634,12.646
		c 6.912,0, 12.576-5.664, 12.576-12.646C 78.266,300.48, 72.602,294.822, 65.69,294.822z M 65.69,337.645c-6.97,0-12.634,5.626-12.634,12.589
		c0,6.989, 5.664,12.64, 12.634,12.64c 6.912,0, 12.576-5.651, 12.576-12.64C 78.266,343.27, 72.602,337.645, 65.69,337.645z M 108.768-48.102
		c-6.963,0-12.608,5.645-12.608,12.608s 5.645,12.608, 12.608,12.608s 12.608-5.645, 12.608-12.608S 115.731-48.102, 108.768-48.102z M 96.179,7.373
		c0,6.963, 5.638,12.608, 12.589,12.608c 6.938,0, 12.582-5.645, 12.589-12.608c0-6.989-5.651-12.589-12.589-12.589
		C 101.818-5.21, 96.179,0.39, 96.179,7.373z M 151.859-48.102c-6.925,0-12.589,5.651-12.589,12.614c0,6.95, 5.664,12.602, 12.589,12.602
		c 6.963,0, 12.614-5.651, 12.614-12.602C 164.474-42.451, 158.829-48.102, 151.859-48.102z M 151.859-5.21c-6.925,0-12.589,5.6-12.589,12.589
		c0,6.963, 5.664,12.608, 12.589,12.608c 6.963,0, 12.614-5.645, 12.614-12.608C 164.474,0.39, 158.829-5.21, 151.859-5.21z M 194.976-48.102
		c-6.957,0-12.602,5.651-12.602,12.614c0,6.95, 5.645,12.602, 12.602,12.602c 6.912,0, 12.57-5.651, 12.57-12.602
		C 207.546-42.451, 201.888-48.102, 194.976-48.102z M 194.976-5.21c-6.957,0-12.602,5.6-12.602,12.589c0,6.963, 5.645,12.608, 12.602,12.608
		c 6.912,0, 12.57-5.645, 12.57-12.608C 207.546,0.39, 201.888-5.21, 194.976-5.21z M 238.067-48.102c-6.97,0-12.608,5.645-12.608,12.608
		s 5.638,12.608, 12.608,12.608c 6.963,0, 12.608-5.645, 12.608-12.608S 245.030-48.102, 238.067-48.102z M 225.478,7.373c0,6.963, 5.619,12.608, 12.589,12.608
		c 6.938,0, 12.57-5.645, 12.57-12.608c0-6.989-5.632-12.589-12.57-12.589C 231.098-5.21, 225.478,0.39, 225.478,7.373z M 281.133-48.102
		c-6.918,0-12.576,5.651-12.576,12.614c0,6.95, 5.645,12.602, 12.576,12.602c 6.944,0, 12.595-5.651, 12.595-12.602
		C 293.728-42.451, 288.077-48.102, 281.133-48.102z M 281.133-5.21c-6.918,0-12.576,5.6-12.576,12.589c0,6.963, 5.645,12.608, 12.576,12.608
		c 6.944,0, 12.595-5.645, 12.595-12.608C 293.728,0.39, 288.077-5.21, 281.133-5.21z M 324.243-48.102c-6.97,0-12.595,5.651-12.595,12.614
		c0,6.95, 5.626,12.602, 12.595,12.602c 6.925,0, 12.608-5.651, 12.608-12.602C 336.851-42.451, 331.168-48.102, 324.243-48.102z M 324.243-5.21
		c-6.97,0-12.595,5.6-12.595,12.589c0,6.963, 5.626,12.608, 12.595,12.608c 6.925,0, 12.608-5.645, 12.608-12.608
		C 336.851,0.39, 331.168-5.21, 324.243-5.21z M 343.898,32.198L 93.472,32.198 L 93.472,282.611 l 250.426,0 L 343.898,32.198 z M 367.36-48.102
		c-6.989,0-12.64,5.651-12.64,12.614c0,6.95, 5.651,12.602, 12.64,12.602c 6.938,0, 12.582-5.651, 12.576-12.602
		C 379.936-42.451, 374.298-48.102, 367.36-48.102z M 367.36-5.21c-6.989,0-12.64,5.6-12.64,12.589c0,6.963, 5.651,12.608, 12.64,12.608
		c 6.938,0, 12.582-5.645, 12.576-12.608C 379.936,0.39, 374.298-5.21, 367.36-5.21z M 367.36,37.613c-6.989,0-12.64,5.658-12.64,12.627
		c0,6.989, 5.651,12.602, 12.64,12.602c 6.938,0, 12.582-5.613, 12.576-12.602C 379.936,43.27, 374.298,37.613, 367.36,37.613z M 367.36,80.493
		c-6.989,0-12.64,5.658-12.64,12.595c0,6.989, 5.651,12.64, 12.64,12.64c 6.938,0, 12.582-5.651, 12.576-12.64
		C 379.936,86.15, 374.298,80.493, 367.36,80.493z M 367.36,123.334c-6.989,0-12.64,5.702-12.64,12.653c0,6.957, 5.651,12.608, 12.64,12.608
		c 6.938,0, 12.582-5.651, 12.576-12.608C 379.936,129.037, 374.298,123.334, 367.36,123.334z M 367.36,166.227c-6.989,0-12.64,5.658-12.64,12.582
		c0,6.963, 5.651,12.614, 12.64,12.614c 6.938,0, 12.582-5.651, 12.576-12.614C 379.936,171.885, 374.298,166.227, 367.36,166.227z M 367.36,209.056
		c-6.989,0-12.64,5.664-12.64,12.621c0,6.95, 5.651,12.634, 12.64,12.634c 6.938,0, 12.582-5.677, 12.576-12.634
		C 379.936,214.72, 374.298,209.056, 367.36,209.056z M 367.36,251.93c-6.989,0-12.64,5.658-12.64,12.646c0,6.918, 5.651,12.602, 12.64,12.602
		c 6.938,0, 12.582-5.683, 12.576-12.602C 379.936,257.587, 374.298,251.93, 367.36,251.93z M 367.36,294.822c-6.989,0-12.64,5.658-12.64,12.576
		c0,6.982, 5.651,12.646, 12.64,12.646c 6.938,0, 12.582-5.664, 12.576-12.646C 379.936,300.48, 374.298,294.822, 367.36,294.822z M 367.36,337.645
		c-6.989,0-12.64,5.626-12.64,12.589c0,6.989, 5.651,12.64, 12.64,12.64c 6.938,0, 12.582-5.651, 12.576-12.64
		C 379.936,343.27, 374.298,337.645, 367.36,337.645z M 410.438-48.102c-6.97,0-12.595,5.651-12.595,12.614c0,6.95, 5.626,12.602, 12.595,12.602
		c 6.938,0, 12.544-5.651, 12.544-12.602C 422.982-42.451, 417.376-48.102, 410.438-48.102z M 410.438-5.21c-6.97,0-12.595,5.6-12.595,12.589
		c0,6.963, 5.626,12.608, 12.595,12.608c 6.938,0, 12.544-5.645, 12.544-12.608C 422.982,0.39, 417.376-5.21, 410.438-5.21z M 410.438,37.613
		c-6.97,0-12.595,5.658-12.595,12.627c0,6.989, 5.626,12.602, 12.595,12.602c 6.938,0, 12.544-5.613, 12.544-12.602
		C 422.982,43.27, 417.376,37.613, 410.438,37.613z M 410.438,80.493c-6.97,0-12.595,5.658-12.595,12.595c0,6.989, 5.626,12.64, 12.595,12.64
		c 6.938,0, 12.544-5.651, 12.544-12.64C 422.982,86.15, 417.376,80.493, 410.438,80.493z M 410.438,123.334c-6.97,0-12.595,5.702-12.595,12.653
		c0,6.957, 5.626,12.608, 12.595,12.608c 6.938,0, 12.544-5.651, 12.544-12.608C 422.982,129.037, 417.376,123.334, 410.438,123.334z M 410.438,166.227
		c-6.97,0-12.595,5.658-12.595,12.582c0,6.963, 5.626,12.614, 12.595,12.614c 6.938,0, 12.544-5.651, 12.544-12.614
		C 422.982,171.885, 417.376,166.227, 410.438,166.227z M 410.438,209.056c-6.97,0-12.595,5.664-12.595,12.621c0,6.95, 5.626,12.634, 12.595,12.634
		c 6.938,0, 12.544-5.677, 12.544-12.634C 422.982,214.72, 417.376,209.056, 410.438,209.056z M 410.438,251.93c-6.97,0-12.595,5.658-12.595,12.646
		c0,6.918, 5.626,12.602, 12.595,12.602c 6.938,0, 12.544-5.683, 12.544-12.602C 422.982,257.587, 417.376,251.93, 410.438,251.93z M 410.438,294.822
		c-6.97,0-12.595,5.658-12.595,12.576c0,6.982, 5.626,12.646, 12.595,12.646c 6.938,0, 12.544-5.664, 12.544-12.646
		C 422.982,300.48, 417.376,294.822, 410.438,294.822z M 410.438,337.645c-6.97,0-12.595,5.626-12.595,12.589c0,6.989, 5.626,12.64, 12.595,12.64
		c 6.938,0, 12.544-5.651, 12.544-12.64C 422.982,343.27, 417.376,337.645, 410.438,337.645z"  />
<glyph unicode="&#x32;" d="M 393.6,163.2L 393.6,258.746 c0,3.61, 6.4,9.107, 6.4,15.104l0,17.722 c0,10.688-10.605,18.829-21.286,18.829l-3.277,0 c-10.694,0-20.237-8.141-20.237-18.829
	l0-17.722 c0-5.984, 6.4-11.469, 6.4-15.098L 361.6,163.2 l-352,0 l0-166.4 l 422.4,0 l0,166.4 L 393.6,163.2 z M 262.739,63.603c-10.074,0-18.272,8.224-18.272,18.323
	c0,10.093, 8.198,18.298, 18.272,18.298c 10.080,0, 18.278-8.205, 18.278-18.298C 281.018,71.827, 272.819,63.603, 262.739,63.603z M 321.28,63.603
	c-10.080,0-18.285,8.224-18.285,18.323c0,10.093, 8.205,18.298, 18.285,18.298c 10.093,0, 18.304-8.205, 18.304-18.298
	C 339.59,71.827, 331.373,63.603, 321.28,63.603z M 379.802,63.603c-10.074,0-18.272,8.224-18.272,18.323c0,10.093, 8.198,18.298, 18.272,18.298
	c 10.080,0, 18.278-8.205, 18.278-18.298C 398.080,71.827, 389.882,63.603, 379.802,63.603z"  />
<glyph unicode="&#x31;" d="M 224.563,377.35c-62.989,0-118.963-52.186-118.963-111.674l0-3.347 c0-39.962, 1.357-77.766, 51.2-96.102l0-71.040 l 30.765-18.214L 156.8,58.778
		l0-29.037 l 30.765-18.214L 156.8-6.675L 156.8-60.8 l 89.6,0 L 246.4,163.398 c 39.949,17.357, 78.733,57.158, 78.733,102.272C 325.133,331.424, 283.565,377.35, 224.563,377.35z
		 M 228.653,272.966c-19.539,0-35.437,15.917-35.437,35.482c0,19.558, 15.898,35.462, 35.437,35.462c 19.546,0, 35.443-15.904, 35.443-35.462
		C 264.096,288.89, 248.192,272.966, 228.653,272.966z"  />
<glyph unicode="&#x5a;" d="M 266.278,39.859l0,45.472 l 129.939,0 L 396.218,371.2 L 45.382,371.2 l0-285.869 l 149.434,0 l0-45.472 L 25.888,39.859 L 25.888-57.6 l 389.818,0 L 415.706,39.859 L 266.278,39.859 z M 220.8,293.235l 12.992,0 l0-84.461 L 220.8,208.774 
		L 220.8,293.235 z M 166.47,222.131c0,24.077, 13.274,45.395, 34.643,55.629l 6.598-13.766c-16.269-7.789-25.978-23.437-25.978-41.862
		c0-25.901, 20.941-46.963, 46.682-46.963c 26.061,0, 47.258,21.069, 47.258,46.963c0,19.085-11.84,36.653-29.466,43.706l 5.67,14.17
		c 23.731-9.498, 39.066-32.211, 39.066-57.869c0-34.317-28.045-62.234-62.528-62.234C 194.253,159.891, 166.47,187.808, 166.47,222.131z"  />
<glyph unicode="&#x59;" d="M 272.678,39.859l0,45.472 l 129.939,0 L 402.618,371.2 L 51.782,371.2 l0-285.869 l 149.434,0 l0-45.472 L 32.288,39.859 L 32.288-57.6 l 389.818,0 L 422.106,39.859 L 272.678,39.859 z M 172.461,231.437
		c0,18.189, 7.597,34.79, 20.506,46.234l-20.102,0.902l 0.685,15.251l 42.771-1.907l 5.094-42.886l-15.162-1.798l-2.336,19.718
		c-10.266-8.576-16.198-21.184-16.198-35.507c0-25.894, 20.947-46.963, 46.688-46.963c 26.054,0, 47.258,21.069, 47.258,46.963
		c0,19.091-11.84,36.659-29.472,43.712l 5.67,14.176c 23.373-9.35, 39.072-32.614, 39.072-57.875c0-34.317-28.045-62.24-62.528-62.24
		C 200.25,169.203, 172.461,197.12, 172.461,231.437z"  />
<glyph unicode="&#x58;" d="M 272.678,39.859l0,45.472 l 129.939,0 L 402.618,371.2 L 51.782,371.2 l0-285.869 l 149.434,0 l0-45.472 L 32.288,39.859 L 32.288-57.6 l 389.818,0 L 422.106,39.859 L 272.678,39.859 z M 251.782,166.118l 31.098,37.216
		l-55.309,29.658l-3.635-14.432l-35.718-22.394L 188.218,156.8 l-6.496,0 l0,35.302 l-40.832-25.594l-3.45,5.51l 80.525,50.477l-32.442,64.25l-49.28,0 l0,6.496 
		l 53.274,0 l 31.040-61.498l 16.992,67.571l 81.587,10.317l 0.806-6.445l-77.178-9.76l-13.568-53.926l 60.256-32.326l 57.184-35.142l-3.392-5.536
		l-54.624,33.581l-31.853-38.118L 251.782,166.118z"  />
<glyph unicode="&#x57;" d="M 403.661,253.613c-11.226,0-20.358-9.152-20.358-20.403c0-0.813, 0.134-1.574, 0.23-2.349l-66.266-19.104
		c-3.27,6.867-10.234,11.661-18.342,11.661c-11.232,0-20.378-9.114-20.378-20.314c0-11.232, 9.146-20.378, 20.378-20.378
		c 11.226,0, 20.358,9.146, 20.358,20.378c0,1.434-0.154,2.816-0.435,4.166l 65.805,18.97c 1.235-3.091, 3.341-5.658, 6.080-7.597l-45.952-70.611
		c-7.731,4.986-19.443,4.224-25.894-2.298c-7.258-7.251-7.757-18.701-1.67-26.714l-54.112-32.922c-3.661,3.475-8.595,5.645-14.035,5.645
		c-7.091,0-13.338-3.661-16.979-9.184l-33.274,24.090l0,0l-13.101,9.491l 13.274,30.688l 30.016-0.013c 0.544-4.499, 2.47-8.672, 5.709-11.91
		c 3.827-3.872, 8.934-6.010, 14.387-6.010c 5.44,0, 10.566,2.131, 14.464,6.003c 7.834,7.904, 7.827,20.813-0.038,28.794
		c-5.344,5.286-14.131,6.701-21.376,4.352l-10.912,21.376c 3.827,3.712, 6.221,8.883, 6.221,14.611c0,11.206-9.158,20.326-20.403,20.326
		c-11.213,0-20.333-9.12-20.333-20.326c0-8.864, 5.696-16.346, 13.574-19.155l-14.394-33.299l-30.010,0.013l-18.925,98.874
		c 7.078,2.758, 11.584,8.902, 11.584,16.832c0,11.238-9.133,20.39-20.352,20.39c-11.226,0-20.358-9.152-20.358-20.39
		c0-9.299, 6.176-16.16, 15.475-17.946l-18.118-62.298c-1.28,0.237-2.586,0.378-3.91,0.378c-5.478,0-10.726-2.125-14.355-5.805
		c-3.866-3.808-6.003-8.909-6.003-14.342c-0.013-5.453, 2.106-10.566, 5.965-14.419c 0.576-0.582, 1.229-1.037, 1.862-1.536L 53.018,151.488
		c-1.165,10.125-9.69,18.048-20.128,18.048c-11.226,0-20.358-9.133-20.358-20.352c0-11.226, 9.133-20.365, 20.358-20.365
		c 10.426,0, 18.944,7.91, 20.122,18.029L 134.4,146.842l 31.814-22.458l 1.882-9.805c-3.13-0.87-6.054-2.349-8.333-4.608
		c-3.853-3.859-5.971-8.96-5.971-14.394c 0.019-5.459, 2.15-10.566, 6.003-14.394c 3.834-3.853, 8.947-5.971, 14.4-5.971
		s 10.56,2.118, 14.381,5.965c 3.859,3.853, 5.984,8.96, 5.984,14.406c0,3.744-1.075,7.309-2.963,10.438l 38.394-27.795
		c-0.768-2.138-1.261-4.403-1.261-6.803c0-11.251, 9.126-20.403, 20.346-20.403c 11.251,0, 20.403,9.152, 20.403,20.403
		c0,4.058-1.222,7.814-3.29,10.989l 54.432,33.133c 3.597-2.874, 7.981-4.518, 12.672-4.518c 5.44,0, 10.541,2.112, 14.387,5.952
		c 7.667,7.744, 7.821,20.115, 0.576,28.051l 46.624,71.373c 2.611-1.018, 5.549-1.613, 8.787-1.613c 12,0, 20.39,7.578, 20.39,18.426
		C 424.051,244.461, 414.899,253.613, 403.661,253.613z M 214.982,183.853c 0.691-0.077, 1.363-0.211, 2.067-0.211c 3.782,0, 7.283,1.101, 10.317,2.899
		l 10.426-20.422c-1.12-0.698-2.163-1.51-3.091-2.445c-3.283-3.296-5.203-7.539-5.715-12.102l-27.955,0.013L 214.982,183.853z
		 M 179.482,114.797c-2.189,0.518-4.442,0.71-6.701,0.576l-0.954,4.966L 179.482,114.797z M 193.811,146.835l-12.038-27.834l-11.264,8.154
		l-3.782,19.686L 193.811,146.835z M 163.757,132.064l-20.518,14.867l 17.862-0.134L 163.757,132.064z M 122.675,150.4
		c 1.062,0.723, 2.074,1.542, 3.002,2.477c 0.16,0.16, 0.282,0.365, 0.435,0.531l 4.589-3.008L 122.675,150.4 z M 128.922,157.248
		c 1.728,3.027, 2.726,6.426, 2.726,10.010c0,5.446-2.118,10.534-5.946,14.323c-1.811,1.83-4.013,3.264-6.432,4.262l 18.515,63.046
		c 0.141,0, 0.269-0.032, 0.41-0.032c 1.408,0, 2.752,0.128, 4.051,0.326l 18.746-97.594l-24.269,0.013L 128.922,157.248z M 140.493,146.95
		l 0.064-0.051L 140.493,146.95L 140.493,146.95z"  />
<glyph unicode="&#x56;" d="M 405.024,100.55c-3.373,0-6.56-0.678-9.594-1.702c-24.224,32.8-79.098,68.166-132.582,79.808
		c 0.045,0.659, 0.192,1.267, 0.192,1.946c0,2.054-0.211,4.058-0.608,6.003c 57.286,12.883, 98.413-10.464, 120.71-29.21
		c-8.557-11.77-7.635-28.39, 2.963-39.072c 5.69-5.677, 13.267-8.8, 21.35-8.8c 8.045,0, 15.622,3.123, 21.357,8.826
		c 11.693,11.814, 11.686,30.957-0.013,42.662c-5.459,5.485-13.242,8.634-21.363,8.634c-7.629,0-14.886-2.861-20.262-7.744
		c-23.642,19.565-67.162,44.115-126.669,30.752c-3.014,6.918-8.544,12.467-15.424,15.546c 19.635,36.243, 59.142,83.616, 100.365,101.92
		c 5.28-6.714, 13.946-10.81, 24.614-10.81c 17.798,0, 30.234,11.232, 30.234,27.315c0,16.672-13.562,30.24-30.234,30.24
		c-16.646,0-30.189-13.562-30.189-30.24c0-3.987, 0.774-7.674, 2.195-10.97c-43.155-19.366-83.354-67.904-103.238-105.395
		c-1.062,0.218-2.189,0.237-3.29,0.339c 4.179,32.774, 15.648,83.405, 46.566,112.179c 5.35-5.984, 13.555-9.632, 23.565-9.632
		c 17.773,0, 30.189,11.232, 30.189,27.309c0,16.678-13.542,30.253-30.189,30.253c-16.653,0-30.195-13.568-30.195-30.253
		c0-4.506, 1.062-8.57, 2.854-12.173c-33.626-30.381-45.382-83.859-49.459-117.805c-2.746-0.365-5.414-0.96-7.878-2.016
		c-16.378,26.886-45.926,48.518-87.462,63.283c-18.547,6.592-36.538,10.784-50.854,13.44c 0.294,8.115-2.528,16.333-8.646,22.534
		c-5.478,5.44-13.28,8.557-21.395,8.557c-8.128,0-15.91-3.13-21.357-8.595c-11.757-11.782-11.738-30.925, 0.019-42.662
		c 5.67-5.734, 13.242-8.902, 21.338-8.902c 8.090,0, 15.706,3.155, 21.459,8.902c 3.878,3.923, 6.342,8.704, 7.622,13.734
		c 38.618-7.29, 104.883-26.394, 133.683-73.485c-4.883-3.482-8.646-8.371-10.784-14.074c-58.733,15.104-120.544,2.208-152.301-23.757
		c-3.629,1.453-7.584,2.227-11.616,2.227c-8.102,0-15.891-3.117-21.382-8.57c-5.709-5.709-8.851-13.286-8.851-21.35
		c 0.013-8.090, 3.174-15.674, 8.896-21.35c 4.134-4.134, 9.267-6.88, 14.854-8.102c-0.986-0.762-2.016-1.485-2.893-2.374
		c-5.728-5.658-8.883-13.21-8.883-21.267c-0.026-8.090, 3.11-15.686, 8.845-21.395c 5.683-5.702, 13.254-8.838, 21.325-8.838
		c 8.077,0, 15.667,3.149, 21.37,8.87c 5.715,5.683, 8.858,13.254, 8.858,21.318c0,7.059-2.522,13.638-6.918,18.963
		c 27.405,25.914, 77.843,66.81, 127.021,71.802c 0.563-5.056, 2.355-9.549, 5.254-13.229c-31.2-33.402-58.822-86.496-73.997-118.765
		c-1.965,0.634-3.994,1.088-6.093,1.312c-16.736,1.811-31.45-10.368-33.21-26.816c-1.766-16.55, 10.259-31.456, 26.81-33.229
		c 1.082-0.115, 2.144-0.166, 3.206-0.166c 15.475,0, 28.378,11.603, 30.003,26.995c 0.858,8.006-1.466,15.872-6.534,22.157
		c-2.342,2.899-5.178,5.235-8.301,7.066c 15.085,31.91, 42.496,84.486, 72.704,116.986c 5.19-3.968, 12.006-6.336, 20.006-6.336
		c 5.664,0, 10.694,1.242, 15.046,3.309c 39.322-52.954, 27.795-138.534, 27.648-139.514l 1.414-0.205c-15.827-0.902-28.454-13.926-28.454-29.965
		c0-16.678, 13.53-30.259, 30.163-30.259c 16.678,0, 30.259,13.574, 30.259,30.259c0,15.494-11.846,28.141-26.963,29.805
		c 0.563,4.23, 3.77,30.957-0.032,63.379c-3.814,32.55-13.741,59.398-28.774,79.712c 4.122,3.226, 7.072,7.514, 8.621,12.608
		c 52.666-11.379, 104.41-46.362, 127.552-76.422c-8.64-5.306-14.464-14.746-14.464-25.581c0-16.666, 13.555-30.227, 30.214-30.227
		c 16.646,0, 30.189,13.555, 30.189,30.227C 435.213,87.040, 421.67,100.55, 405.024,100.55z M 71.334,110.035c-3.584,2.803-7.776,4.838-12.358,5.786
		c 1.056,0.806, 2.131,1.581, 3.085,2.534c 5.715,5.709, 8.864,13.293, 8.864,21.363c0,8.058-3.149,15.642-8.883,21.357
		c-1.203,1.19-2.547,2.221-3.942,3.181c 33.478,26.554, 95.533,32.416, 144.934,20.512c-0.051-0.358-0.070-0.717-0.109-1.082
		c-28.307-2.752-60.282-16.845-94.15-41.984C 94.022,130.765, 81.261,119.456, 71.334,110.035z"  />
<glyph unicode="&#x72;" d="M 60,231.2l0-6.002 L 60,140 l-14.4,0 L 45.6,231.59 c 4.8,3.331, 6.4,8.315, 6.4,13.763l0,15.717 c0,9.822-6.648,16.53-16.49,16.53l-2.899,0 
		C 22.779,277.6, 13.6,270.893, 13.6,261.070l0-15.717 c0-5.437, 3.2-10.422, 6.4-13.758L 20,114.4 l 40,0 l0-12.422 L 60,44 l 12.8,0 l0,57.6 l 48,0 l0-60.8 l 145.6,0 l0,60.8 l 20.8,0 l0-60.8 l 145.6,0 l0,61.178 
		l0,12.55 L 432.8,231.2 L 60,231.2 z M 159.2,47.2l-11.2,0 l0,54.4 l 11.2,0 L 159.2,47.2 z M 186.4,47.2l-12.8,0 l0,54.4 l 12.8,0 L 186.4,47.2 z M 213.6,47.2l-12.8,0 l0,54.4 l 12.8,0 L 213.6,47.2 z M 239.2,47.2l-11.2,0 l0,54.4 l 11.2,0 
		L 239.2,47.2 z M 325.6,47.2l-12.8,0 l0,54.4 l 12.8,0 L 325.6,47.2 z M 352.8,47.2l-12.8,0 l0,54.4 l 12.8,0 L 352.8,47.2 z M 380,47.2l-12.8,0 l0,54.4 l 12.8,0 L 380,47.2 z M 405.6,47.2l-11.2,0 l0,54.4 l 11.2,0 L 405.6,47.2 z"  />
<glyph unicode="&#x52;" d="M 5.6,248.8l0-179.2 l 184,0 l0,35.2 l 68.8,0 l0-35.2 l 180.8,0 l0,179.2 L 5.6,248.8 z M 50.4,76l-12.8,0 l0,35.2 l 12.8,0 L 50.4,76 z M 79.2,76l-12.8,0 l0,35.2 l 12.8,0 L 79.2,76 z M 108,76l-11.2,0 l0,35.2 l 11.2,0 
		L 108,76 z M 136.8,76l-12.8,0 l0,35.2 l 12.8,0 L 136.8,76 z M 165.6,76l-11.2,0 l0,35.2 l 11.2,0 L 165.6,76 z M 293.6,76l-12.8,0 l0,35.2 l 12.8,0 L 293.6,76 z M 322.4,76l-12.8,0 l0,35.2 l 12.8,0 L 322.4,76 z
		 M 351.2,76l-12.8,0 l0,35.2 l 12.8,0 L 351.2,76 z M 380,76l-12.8,0 l0,35.2 l 12.8,0 L 380,76 z M 408.8,76l-12.8,0 l0,35.2 l 12.8,0 L 408.8,76 z"  />
<glyph unicode="&#x50;" d="M 60,231.2l0-6.371 L 60,140 l-14.4,0 L 45.6,231.222 c 4.8,3.331, 6.4,8.315, 6.4,13.762l0,15.718 c0,9.821-6.648,18.499-16.49,18.499l-2.899,0 
			C 22.779,279.2, 13.6,270.522, 13.6,260.701l0-15.718 c0-5.435, 3.2-10.421, 6.4-13.758L 20,114.4 l 40,0 l0-12.79 L 60,44 l 12.8,0 l0,57.6 l 48,0 l0-60.8 l 145.6,0 l0,60.8 l 20.8,0 l0-60.8 l 145.6,0 l0,60.81 
			l0,12.55 L 432.8,231.2 L 60,231.2 z M 59.218,127.2L 32.8,127.2 L 32.8,238.53 l-3.469,1.72c-1.837,0.899-2.931,2.712-2.931,4.733l0,15.718 
			c0,2.901, 3.299,5.699, 6.213,5.699l 2.899,0 c 2.92,0, 5.29-2.797, 5.29-5.699l0-15.718 c0-2.027-1.888-3.838-3.718-4.728L 32.8,238.538L 32.8,127.2 
			L 59.218,127.2 L 59.218,127.2z M 133.6,101.6l 14.4,0 l0-48 l-14.4,0 L 133.6,101.6 z M 228,101.6l0-48 l-14.4,0 l0,48 L 228,101.6 z M 200.8,53.6l-14.4,0 l0,48 l 14.4,0 L 200.8,53.6 z M 173.6,53.6l-14.4,0 
			l0,48 l 14.4,0 L 173.6,53.6 z M 253.6,53.6l-14.4,0 l0,48 l 14.4,0 L 253.6,53.6 z M 300,101.6l 12.8,0 l0-48 l-12.8,0 L 300,101.6 z M 394.4,101.6l0-48 l-14.4,0 l0,48 L 394.4,101.6 z M 367.2,53.6l-14.4,0 l0,48 l 14.4,0 
			L 367.2,53.6 z M 340,53.6l-14.4,0 l0,48 l 14.4,0 L 340,53.6 z M 420,53.6l-14.4,0 l0,48 l 14.4,0 L 420,53.6 z M 288.485,114.4l-21.502,0 L 122.357,114.4 L 72.8,114.4 l0,104 l 347.2,0 l0-104 L 288.485,114.4 z"  />
<glyph unicode="&#x4a;" d="M 5.6,250.4l0-180.8 l 184,0 l0,35.2 l 68.8,0 l0-35.2 l 180.8,0 l0,180.8 L 5.6,250.4 z M 426.4,82.4l-17.6,0 l0,28.8 l-12.8,0 l0-28.8 l-16,0 l0,28.8 l-12.8,0 l0-28.8 l-16,0 l0,28.8 l-12.8,0 l0-28.8 l-16,0 l0,28.8 l-12.8,0 l0-28.8 l-16,0 
			l0,28.8 l-12.8,0 l0-28.8 l-9.6,0 l0,35.2 l-94.4,0 l0-35.2 l-11.2,0 l0,28.8 l-11.2,0 l0-28.8 l-17.6,0 l0,28.8 l-12.8,0 l0-28.8 l-16,0 l0,28.8 l-11.2,0 l0-28.8 l-17.6,0 l0,28.8 l-12.8,0 l0-28.8 l-16,0 l0,28.8 l-12.8,0 l0-28.8 l-19.2,0 l0,155.2 l 408,0 L 426.4,82.4 z"  />
<glyph unicode="&#x55;" d="M 168.051,134.106c-2.278,3.597-4.166,7.45-5.638,11.52L 87.898,114.88c-5.254,6.982-13.542,11.571-22.938,11.571
		c-15.91,0-28.858-12.915-28.858-28.774c0-15.936, 12.941-28.89, 28.858-28.89c 15.872,0, 28.794,12.947, 28.794,28.89
		c0,1.901-0.211,3.744-0.557,5.536L 168.051,134.106zM 193.286,112.122l-31.949-76.896c-1.933,0.397-3.91,0.634-5.926,0.634c-7.693,0-14.938-2.989-20.403-8.435
		c-5.459-5.472-8.448-12.736-8.422-20.461c 0.019-7.699, 3.034-14.912, 8.467-20.326c 5.446-5.427, 12.678-8.41, 20.39-8.41
		s 14.95,2.989, 20.429,8.422c 11.162,11.213, 11.168,29.485-0.032,40.8c-0.896,0.89-1.907,1.606-2.893,2.355l 32.518,78.266
		C 201.203,108.966, 197.146,110.355, 193.286,112.122zM 262.4,172.8L 224,172.8L 224,211.2L 211.2,211.2L 211.2,172.8L 172.8,172.8L 172.8,160L 211.2,160L 211.2,121.6L 224,121.6L 224,160L 262.4,160 	zM 61.92,134.138c 7.725,0, 14.989,3.027, 20.397,8.486c 4.051,4.013, 6.746,9.043, 7.866,14.534l 69.408-0.243
		c-0.416,2.81-0.698,5.67-0.698,8.602c0,1.421, 0.115,2.803, 0.211,4.198l-69.267,0.243c-1.248,5.030-3.738,9.677-7.494,13.434
		c-5.446,5.466-12.678,8.461-20.384,8.461s-14.944-3.002-20.403-8.448c-11.251-11.264-11.245-29.574, 0.006-40.838
		C 47.008,137.126, 54.24,134.138, 61.92,134.138zM 309.44,156.794c 2.739-13.075, 14.349-22.931, 28.23-22.931c 15.891,0, 28.826,12.934, 28.826,28.838c0,15.872-12.934,28.8-28.826,28.8
		c-13.51,0-24.806-9.363-27.923-21.907l-33.645-0.064c 0.090-1.331, 0.205-2.662, 0.205-4.019c0-2.995-0.294-5.907-0.73-8.781L 309.44,156.794
		zM 408.269,78.285c-5.459,5.453-12.704,8.461-20.403,8.461c-7.482,0-14.509-2.893-19.885-8.058
		c 0.038,0.045, 0.077,0.096, 0.122,0.134L 270.4,139.974c-1.875-3.872-4.141-7.514-6.784-10.848l 97.389-60.947
		c-3.885-10.272-1.76-22.349, 6.477-30.675c 5.453-5.44, 12.685-8.422, 20.397-8.422s 14.95,2.989, 20.416,8.461
		C 419.45,48.813, 419.437,67.085, 408.269,78.285zM 227.661,320.403l-7.763-96.294c 4.371-0.173, 8.614-0.813, 12.685-1.888l 7.853,97.414c 5.862,0.986, 11.283,3.686, 15.59,7.974
		c 11.194,11.238, 11.194,29.51-0.013,40.749c-5.459,5.453-12.704,8.448-20.416,8.448s-14.957-3.002-20.397-8.448
		c-5.453-5.453-8.442-12.685-8.435-20.39s 3.014-14.938, 8.454-20.365C 218.714,324.102, 223.014,321.734, 227.661,320.403zM 263.456,202.118c 2.669-3.334, 4.947-6.982, 6.848-10.854l 93.37,69.094c 4.755-3.142, 10.746-4.992, 17.651-4.992
		c 16.698,0, 28.826,10.95, 28.826,26.035c0,15.923-12.934,28.89-28.826,28.89c-15.878,0-28.794-12.96-28.794-28.89
		c0-4.218, 0.966-8.038, 2.618-11.424L 263.456,202.118zM 60.141,254.048c 7.475,0, 14.483,2.886, 19.827,8.013l 87.45-66.195c 2.227,3.674, 4.819,7.085, 7.77,10.176l-87.693,66.368
		c-1.434-3.373-3.507-6.483-6.189-9.139c-0.147-0.147-0.32-0.269-0.486-0.397c 5.242,5.35, 8.166,12.41, 8.186,19.949
		c 0.019,7.75-2.976,15.014-8.435,20.474c-5.446,5.466-12.678,8.461-20.384,8.461s-14.944-3.002-20.403-8.448
		c-11.245-11.264-11.245-29.574, 0.006-40.838C 45.235,257.037, 52.467,254.048, 60.141,254.048zM 265.242,0.883L 239.872,111.206c-3.91-1.606-8.045-2.771-12.326-3.501l 25.178-109.536c-9.843-4.589-16.717-14.522-16.717-26.080
		c0-15.936, 12.922-28.902, 28.8-28.902c 15.923,0, 28.883,12.96, 28.883,28.902C 293.69-12.16, 280.96,0.646, 265.242,0.883z"  />
<glyph unicode="&#x54;" d="M 168.051,134.106c-2.272,3.597-4.16,7.45-5.638,11.52L 87.898,114.88c-5.254,6.982-13.536,11.571-22.938,11.571
		c-15.91,0-28.858-12.915-28.858-28.774c0-15.936, 12.941-28.89, 28.858-28.89c 15.872,0, 28.794,12.947, 28.794,28.89
		c0,1.901-0.205,3.744-0.557,5.536L 168.051,134.106z M 64.96,81.587c-8.858,0-16.058,7.213-16.058,16.090c0,8.8, 7.2,15.974, 16.058,15.974
		c 8.819,0, 15.994-7.174, 15.994-15.974C 80.954,88.8, 73.779,81.587, 64.96,81.587zM 193.286,112.122l-31.949-76.896c-1.933,0.397-3.91,0.634-5.926,0.634c-7.693,0-14.938-2.989-20.403-8.435
		c-5.459-5.472-8.448-12.736-8.422-20.461c 0.019-7.699, 3.034-14.912, 8.467-20.326c 5.446-5.427, 12.678-8.41, 20.39-8.41
		s 14.95,2.989, 20.429,8.422c 11.162,11.213, 11.168,29.485-0.032,40.8c-0.902,0.89-1.914,1.606-2.893,2.355l 32.518,78.266
		C 201.21,108.966, 197.152,110.355, 193.286,112.122z M 166.822-4.294c-6.074-6.035-16.666-6.048-22.746,0
		c-3.027,3.002-4.691,7.014-4.698,11.277c-0.013,4.301, 1.651,8.352, 4.672,11.373c 3.040,3.040, 7.072,4.698, 11.354,4.698
		c 4.294,0, 8.352-1.677, 11.373-4.666C 173.011,12.109, 173.018,1.92, 166.822-4.294zM 262.4,172.8L 224,172.8L 224,211.2L 211.2,211.2L 211.2,172.8L 172.8,172.8L 172.8,160L 211.2,160L 211.2,121.6L 224,121.6L 224,160L 262.4,160 	zM 61.926,134.138c 7.725,0, 14.989,3.027, 20.39,8.486c 4.058,4.013, 6.752,9.043, 7.866,14.534l 69.408-0.243
		c-0.41,2.81-0.698,5.67-0.698,8.602c0,1.421, 0.115,2.803, 0.211,4.198l-69.261,0.243c-1.248,5.030-3.738,9.677-7.501,13.434
		c-5.44,5.466-12.672,8.461-20.378,8.461s-14.95-3.002-20.41-8.448c-11.251-11.264-11.238-29.574, 0.013-40.838
		C 47.014,137.126, 54.24,134.138, 61.926,134.138z M 50.598,174.349c 3.040,3.027, 7.072,4.698, 11.36,4.698c 4.275,0, 8.288-1.664, 11.328-4.698
		s 4.698-7.085, 4.685-11.398c-0.013-4.275-1.664-8.262-4.71-11.277c-3.027-3.066-7.053-4.736-11.334-4.736c-4.275,0-8.288,1.664-11.328,4.685
		C 44.352,157.888, 44.352,168.077, 50.598,174.349zM 309.446,156.794c 2.739-13.075, 14.349-22.931, 28.23-22.931c 15.891,0, 28.826,12.934, 28.826,28.838c0,15.872-12.934,28.8-28.826,28.8
		c-13.51,0-24.806-9.363-27.923-21.907l-33.638-0.064c 0.090-1.331, 0.198-2.662, 0.198-4.019c0-2.995-0.294-5.907-0.723-8.781
		L 309.446,156.794z M 337.677,178.701c 8.838,0, 16.026-7.174, 16.026-16c0-8.838-7.187-16.038-16.026-16.038c-8.851,0-16.051,7.2-16.051,16.038
		C 321.626,171.526, 328.826,178.701, 337.677,178.701zM 408.275,78.285c-5.459,5.453-12.704,8.461-20.403,8.461c-7.482,0-14.509-2.893-19.885-8.058
		c 0.045,0.045, 0.077,0.096, 0.122,0.134L 270.4,139.974c-1.875-3.872-4.134-7.514-6.784-10.848l 97.395-60.947
		c-3.885-10.272-1.76-22.349, 6.477-30.675c 5.453-5.44, 12.685-8.422, 20.397-8.422s 14.95,2.989, 20.416,8.461
		C 419.45,48.813, 419.437,67.085, 408.275,78.285z M 399.226,46.56c-6.048-6.061-16.659-6.010-22.669-0.026
		c-6.234,6.285-6.246,16.474-0.013,22.701c 3.027,3.040, 7.053,4.71, 11.328,4.71c 4.282,0, 8.314-1.677, 11.347-4.71
		C 405.427,63.014, 405.421,52.826, 399.226,46.56zM 227.661,320.403l-7.763-96.294c 4.371-0.173, 8.614-0.813, 12.685-1.888l 7.853,97.414c 5.856,0.986, 11.277,3.686, 15.59,7.974
		c 11.194,11.238, 11.194,29.51-0.013,40.749c-5.459,5.453-12.704,8.448-20.416,8.448s-14.957-3.002-20.397-8.448
		c-5.453-5.453-8.442-12.685-8.435-20.39s 3.014-14.938, 8.454-20.365C 218.72,324.102, 223.014,321.734, 227.661,320.403z M 224.256,359.315
		c 3.027,3.040, 7.053,4.698, 11.334,4.698c 4.294,0, 8.333-1.677, 11.36-4.698c 6.234-6.253, 6.234-16.41, 0.013-22.65
		c-6.074-6.048-16.646-6.074-22.701,0c-3.034,3.027-4.704,7.053-4.704,11.328C 219.558,352.262, 221.222,356.288, 224.256,359.315zM 263.456,202.118c 2.669-3.334, 4.947-6.982, 6.842-10.854l 93.376,69.094c 4.749-3.142, 10.739-4.992, 17.651-4.992
		c 16.698,0, 28.826,10.95, 28.826,26.035c0,15.923-12.934,28.89-28.826,28.89c-15.878,0-28.794-12.96-28.794-28.89
		c0-4.218, 0.966-8.038, 2.618-11.424L 263.456,202.118z M 381.325,297.485c 8.838,0, 16.026-7.226, 16.026-16.090c0-9.773-8.634-13.235-16.026-13.235
		c-7.379,0-15.994,3.462-15.994,13.235C 365.331,290.266, 372.506,297.485, 381.325,297.485zM 60.141,254.048c 7.482,0, 14.483,2.886, 19.827,8.013l 87.443-66.195c 2.227,3.674, 4.826,7.085, 7.776,10.176l-87.686,66.368
		c-1.44-3.373-3.514-6.483-6.195-9.139c-0.147-0.147-0.32-0.269-0.48-0.397c 5.235,5.35, 8.16,12.41, 8.179,19.949
		c 0.019,7.75-2.976,15.014-8.435,20.474c-5.446,5.466-12.678,8.461-20.384,8.461s-14.944-3.002-20.403-8.448
		c-11.245-11.264-11.245-29.574, 0.006-40.838C 45.235,257.037, 52.467,254.048, 60.141,254.048z M 48.832,294.266c 3.040,3.027, 7.072,4.698, 11.354,4.698
		c 4.275,0, 8.294-1.664, 11.328-4.698c 3.040-3.040, 4.704-7.085, 4.691-11.398c-0.013-4.275-1.67-8.262-4.71-11.277
		c-6.042-6.112-16.595-6.112-22.656-0.064C 42.573,277.786, 42.573,287.987, 48.832,294.266zM 265.242,0.883L 239.872,111.206c-3.91-1.606-8.045-2.771-12.326-3.501l 25.178-109.536c-9.837-4.589-16.71-14.522-16.71-26.080
		c0-15.936, 12.922-28.902, 28.8-28.902c 15.923,0, 28.883,12.96, 28.883,28.902C 293.696-12.16, 280.96,0.646, 265.242,0.883z M 264.813-44.013
		c-8.826,0-16,7.226-16,16.102c0,8.838, 7.174,16.038, 16,16.038c 8.87,0, 16.083-7.2, 16.083-16.038
		C 280.896-36.934, 273.83-44.013, 264.813-44.013z"  />
<glyph unicode="&#x53;" d="M 253.075,45.901l0,44.365 l 155.258,0 L 408.333,371.2 L 46.067,371.2 l0-280.934 l 162.65,0 l0-44.365 L 23.891,45.901 L 23.891-57.6 l 406.624,0 L 430.515,45.901 L 253.075,45.901 z M 245.683,178.976l-14.784,0 l0,51.75 
	l-51.757,0 l0,14.79 l 51.757,0 l0,44.358 l 14.784,0 l0-44.358 l 44.365,0 l0-14.79 l-44.365,0 L 245.683,178.976 z"  />
<glyph unicode="&#x51;" d="M 6.4,384l0-441.6 l 435.2,0 L 441.6,384 L 6.4,384 z M 345.6,128L 249.6,128 l0-44.8 l 96,0 l0-57.6 L 108.8,25.6 l0,57.6 l 96,0 l0,44.8 L 108.8,128 L 108.8,313.6 l 236.8,0 L 345.6,128 z"  />
<glyph unicode="&#x36;" d="M 236.090-16.141c-52.864,0-100.858,21.158-136.038,55.411l-7.853-8.346c 33.37-43.181, 85.363-72.282, 143.712-72.282
		c 83.36,0, 153.773,59.347, 175.334,134.406C 379.411,28.429, 312.87-16.141, 236.090-16.141zM 66.528,82.566c-2.272,3.994-4.461,8.045-6.458,12.205c 1.242-4.512, 2.656-8.966, 4.25-13.357L 66.528,82.566zM 29.536,48.8L 58.739,14.042L 151.328,112.435 	zM 179.014,141.357l 7.629-10.061L 108.813,48.582c 32.89-32.096, 77.798-51.923, 127.277-51.923c 100.563,0, 182.374,81.798, 182.374,182.349
		S 336.653,361.357, 236.090,361.357c-100.557,0-182.362-81.798-182.362-182.349c0-32.928, 8.819-63.814, 24.147-90.509L 179.014,141.357z M 192,185.6l 38.4,0 l0,38.4 l 12.8,0 
		l0-38.4 l 38.4,0 l0-12.8 l-38.4,0 l0-38.4 l-12.8,0 l0,38.4 l-38.4,0 L 192,185.6 z"  />
<glyph unicode="&#x70;" d="M 223.744,377.235c-119.891,0-217.427-97.542-217.427-217.434C 6.317,39.923, 103.853-57.6, 223.744-57.6c 119.917,0, 217.478,97.523, 217.478,217.402
	C 441.222,279.699, 343.661,377.235, 223.744,377.235z M 248.838,42.957l-46.963,0 L 201.875,185.914 l 46.963,0 L 248.838,42.957 z M 244.627,237.683
	c-4.275-3.942-10.688-5.914-19.2-5.914c-17.024,0.006-25.549,7.514-25.549,22.515c0,14.931, 8.518,22.387, 25.549,22.387
	c 17.069,0, 25.581-7.456, 25.581-22.387C 251.002,247.187, 248.877,241.651, 244.627,237.683z"  />
<glyph unicode="&#x79;" d="M 247.059,291.2c-0.627,0-1.248,0-1.875,0c-36.845,0-74.56,9.798-75.328,29.946l 12.794-0.173
				c 0.243-6.445, 21.978-18.97, 62.643-19.29c 39.597-0.512, 65.6,10.771, 66.157,18.707l 12.768,0.352C 322.778,300.403, 284.634,291.2, 247.059,291.2zM 246.88,246.4c-0.646,0-1.28,0-1.907,0c-30.643,0-82.803,7.053-83.936,27.616l 12.781,1.197
				c 1.626-4.826, 27.552-13.99, 71.238-14.291c 45.638-0.282, 73.498,9.67, 75.136,14.822l 12.73-2.17C 331.027,252.8, 278.848,246.4, 246.88,246.4zM 247.494,187.072c-1.146,0-2.272,0.006-3.411,0.019c-57.92,0.474-117.222,15.11-118.477,42.17l 12.787,0.589
				c 0.563-12.147, 41.082-29.427, 105.805-29.958c 67.584-0.704, 110.451,16.858, 111.424,29.715l 12.762-0.96C 366.323,201.421, 305.203,187.072, 247.494,187.072
				zM 246.976,121.126c-1.171,0-2.33,0.006-3.494,0.013c-70.662,0.486-142.931,17.082-144.326,47.853l 12.787,0.576
				c 0.646-14.195, 47.891-35.046, 131.635-35.622c 84.115-0.845, 137.325,20.154, 138.566,35.354l 12.755-1.037
				C 392.378,137.427, 317.466,121.126, 246.976,121.126zM 247.36,54.381c-1.453,0-2.893,0.006-4.346,0.019c-79.046,0.461-159.936,18.95-161.574,53.382l 12.787,0.614
				c 0.909-19.078, 62.272-40.685, 148.877-41.197c 90.291-0.678, 155.053,20.915, 156.736,40.851l 12.755-1.075
				C 409.696,72.55, 326.125,54.381, 247.36,54.381zM 247.053-3.718c-0.992,0-1.978,0.006-2.97,0.013c-57.926,0.429-117.229,16.077-118.477,45.126l 12.787,0.55
				c 0.653-15.181, 44.262-32.41, 105.798-32.877c 1.005-0.006, 2.010-0.013, 3.002-0.013c 60.96,0, 107.328,17.037, 108.422,32.672l 12.768-0.902
				C 366.342,11.693, 304.915-3.718, 247.053-3.718zM 246.726-54.4c-0.518,0-1.030,0-1.542,0c-36.794,0-74.381,12.762-75.066,35.45L 182.912-18.56
				c 0.282-9.306, 24.16-22.573, 62.413-23.040c 0.531-0.006, 1.069-0.006, 1.6-0.006c 38.938,0, 63.622,13.293, 64.237,23.027l 12.774-0.806
				C 322.49-42.266, 283.366-54.4, 246.726-54.4zM 247.181,336l-2.842,0 c-11.091,0-108.461,2.374-109.843,28.787l-0.352,7.29l 112.851,0.442l 113.427-0.397l-0.883-8.205
				C 356.301,337.798, 258.336,336, 247.181,336z M 161.901,358.758C 177.325,354.413, 204.8,348.8, 244.397,348.8l 2.784,0 c 38.419,0, 66.899,5.21, 83.424,9.69
				L 246.963,358.874L 161.901,358.758z"  />
<glyph unicode="&#x7a;" d="M 223.104,352.871c-121.023,0-219.482-98.685-219.482-219.991 0-61.518 25.113-119.179 72.63-164.638l 1.159-2.231l 291.368,0 l 1.161,2.218c 47.52,45.47 72.646,102.624 72.646,164.237 0,121.225-98.459,220.405-219.482,220.405zM 365.572-26.006l-284.952,0 c-45.164,45.237-69.021,98.967-69.021,157.762 0,116.899 94.879,212.569 211.497,212.569s 211.497-95.874 211.497-212.698c 0.008-58.878-23.852-112.394-69.021-157.633zM 219.111,311.958l 7.986,0 l0-50.567 l-7.986,0 zM 354.83,141.641l 50.556,0 l0-7.982 l-50.556,0 zM 43.481,141.641l 50.563,0 l0-7.982 l-50.563,0 zM 128.402,224.84l-36.003,35.998 6.351,6.352 36.008-35.999zM 317.019,231.21l 36.001,36.004 6.358-6.349-36.008-36.002zM 219.285,234.983l-13.87-184.101-0.263-4.251-1.848-6.109l 2.385,0 c 1.862-7.985 8.49-14.2 18.682-14.2 10.297,0 16.959,6.215 18.739,14.2l 0.989,0 l-16.854,193.389-7.96,1.072zM 235.576,46.93c-0.346-7.283-3.801-10.532-11.211-10.532-7.412,0-10.865,3.249-11.213,10.533l-0.020,0.263 10.426,138.341 12.057-137.572-0.039-1.033z"  />
<glyph unicode="&#x74;" d="M 175.283,283l 98.042,0 l0-98.061 l-98.042,0 l0,98.061 zM 0.55,282.968l 97.99,0 l0-97.99 l-97.99,0 l0,97.99 zM 175.283,124.997l 98.042,0 l0-98.003 l-98.042,0 l0,98.003 zM 349.414,283l 97.978,0 l0-98.061 l-97.978,0 l0,98.061 zM 349.414,124.997l 97.978,0 l0-98.003 l-97.978,0 l0,98.003 zM 0.55,124.997l 97.99,0 l0-98.003 l-97.99,0 l0,98.003 z"  />
<glyph unicode="&#x73;" d="M 0.928,283l 48.026,0 l0-48.038 l-48.026,0 l0,48.038 zM 0.928,179.013l 48.026,0 l0-48.083 l-48.026,0 l0,48.083 zM 0.928,75.026l 48.026,0 l0-48.026 l-48.026,0 l0,48.026 zM 122.266,271.038l 235.213,0 l0-24.013 l-235.213,0 l0,24.013 zM 122.266,167.013l 235.213,0 l0-24.032 l-235.213,0 l0,24.032 zM 119.712,62.552l 235.29,0 l0-24.019 l-235.29,0 l0,24.019 z"  />
<glyph unicode="&#x6e;" d="M 303.938,144l0,32 q0,6.5-4.75,11.25t-11.25,4.75l-192,0 q-6.5,0-11.25-4.75t-4.75-11.25l0-32 q0-6.5 4.75-11.25t 11.25-4.75l 192,0 q 6.5,0 11.25,4.75t 4.75,11.25zM 383.938,160q0-52.25-25.75-96.375t-69.875-69.875-96.375-25.75-96.375,25.75-69.875,69.875-25.75,96.375 25.75,96.375 69.875,69.875 96.375,25.75 96.375-25.75 69.875-69.875 25.75-96.375z" horiz-adv-x="384"  />
<glyph unicode="&#x6c;" d="M 320.938,200.5q0,7-4.5,11.5l-22.75,22.5q-4.75,4.75-11.25,4.75t-11.25-4.75l-102-101.75-56.5,56.5q-4.75,4.75-11.25,4.75t-11.25-4.75l-22.75-22.5q-4.5-4.5-4.5-11.5 0-6.75 4.5-11.25l 90.5-90.5q 4.75-4.75 11.25-4.75 6.75,0 11.5,4.75l 135.75,135.75q 4.5,4.5 4.5,11.25zM 383.938,160q0-52.25-25.75-96.375t-69.875-69.875-96.375-25.75-96.375,25.75-69.875,69.875-25.75,96.375 25.75,96.375 69.875,69.875 96.375,25.75 96.375-25.75 69.875-69.875 25.75-96.375z" horiz-adv-x="384"  />
<glyph unicode="&#x6a;" d="M 327.938,160.75q0,40.25-21.75,73.75l-188.5-188.25q 34.25-22.25 74.25-22.25 27.75,0 52.875,10.875t 43.375,29.125 29,43.625 10.75,53.125zM 78.188,86l 188.75,188.5q-33.75,22.75-75,22.75-37,0-68.25-18.25t-49.5-49.75-18.25-68.5q0-40.5 22.25-74.75zM 383.938,160.75q0-39.25-15.25-75t-40.875-61.5-61.25-41-74.625-15.25-74.625,15.25-61.25,41-40.875,61.5-15.25,75 15.25,74.875 40.875,61.375 61.25,41 74.625,15.25 74.625-15.25 61.25-41 40.875-61.375 15.25-74.875z" horiz-adv-x="384"  />
<glyph unicode="&#x69;" d="M 280,319.868l0-59.482 c 15.84-6.914 30.406-16.803 42.995-29.391 26.443-26.442 41.005-61.6 41.005-98.995s-14.563-72.552-41.005-98.995c-26.442-26.442-61.599-41.005-98.995-41.005s-72.552,14.563-98.995,41.005c-26.442,26.442-41.005,61.6-41.005,98.995s 14.563,72.552 41.005,98.995c 12.589,12.589 27.155,22.478 42.995,29.392l0,59.481 c-80.959-24.098-140-99.082-140-187.868 0-108.248 87.753-196 196-196 108.248,0 196,87.752 196,196 0,88.786-59.041,163.77-140,187.868zM 196,384l 56,0 l0-224 l-56,0 z"  />
<glyph unicode="&#x68;" d="M 417.75,242.5q0-10-7-17l-215-215q-7-7-17-7t-17,7l-124.5,124.5q-7,7-7,17t 7,17l 34,34q 7,7 17,7t 17-7l 73.5-73.75 164,164.25q 7,7 17,7t 17-7l 34-34q 7-7 7-17z"  />
<glyph unicode="&#x67;" d="M 483.219,311.984c-17.962-7.966-37.394-13.426-57.68-15.82 20.678,12.404 36.708,32.144 44.324,55.636-19.628-11.494-41.118-19.908-63.882-24.402-18.438,19.53-44.576,31.794-73.374,31.794-55.636,0-100.548-45.108-100.548-100.548 0-7.882 0.756-15.582 2.548-22.932-83.552,4.116-157.542,44.226-207.228,104.986-8.638-14.812-13.594-32.13-13.594-50.498 0-34.902 17.766-65.688 44.786-83.622-16.562,0.42-32.13,4.97-45.654,12.544 0-0.504 0-0.812 0-1.33 0-48.58 34.72-89.334 80.682-98.574-8.456-2.282-17.276-3.486-26.53-3.486-6.496,0-12.726,0.56-18.9,1.708 12.768-39.858 49.91-68.95 93.884-69.776-34.3-27.048-77.672-42.966-124.866-42.966-7.994,0-16.128,0.49-23.982,1.344 44.548-28.476 97.44-45.276 154.21-45.276 184.856,0 285.978,153.328 285.978,286.16 0,4.382-0.154,8.666-0.294,12.95 19.67,14.28 36.61,31.962 50.12,52.108z" horiz-adv-x="490"  />
<glyph unicode="&#x64;" d="M 446.285-9.658l-150.957,151.258c 14.278,23.603 22.957,51.168 22.957,80.922 0,86.893-70.739,157.613-157.626,157.613-86.886,0-157.613-70.726-157.613-157.613 0-86.905 70.733-157.613 157.613-157.613 30.611,0 59.008,9.069 83.072,24.199l 150.765-150.566 51.789,51.802zM 39.687,222.522c0,66.65 54.298,120.947 120.953,120.947s 120.96-54.298 120.96-120.947c0-66.669-54.304-120.953-120.96-120.953s-120.953,54.291-120.953,120.953z"  />
<glyph unicode="&#x63;" d="M 286.262,103.552q0,6.72-4.928,11.2l-45.248,45.248 45.248,45.248q 4.928,4.928 4.928,11.2 0,6.72-4.928,11.648l-22.4,22.4q-4.928,4.928-11.648,4.928t-11.2-4.928l-45.248-45.248-45.248,45.248q-4.928,4.928-11.2,4.928-6.72,0-11.648-4.928l-22.4-22.4q-4.928-4.928-4.928-11.648t 4.928-11.2l 45.248-45.248-45.248-45.248q-4.928-4.928-4.928-11.2 0-6.72 4.928-11.648l 22.4-22.4q 4.928-4.928 11.648-4.928t 11.2,4.928l 45.248,45.248 45.248-45.248q 4.928-4.928 11.2-4.928 6.72,0 11.648,4.928l 22.4,22.4q 4.928,4.928 4.928,11.648zM 383.029,160q0-52.416-25.536-96.32t-69.888-69.888-96.32-25.536-96.32,25.536-69.888,69.888-25.536,96.32 25.536,96.32 69.888,69.888 96.32,25.536 96.32-25.536 69.888-69.888 25.536-96.32z" horiz-adv-x="382"  />
<glyph unicode="&#x62;" d="M0,384l0-448 l 448,0 l0,448 l-448,0 zM 420-36l-392,0 l0,392 l 392,0 l0-392 zM 336,286l-140-140-84,84-56-56 140-140 196,196-56,56z"  />
<glyph unicode="&#x61;" d="M0,384l0-448 l 448,0 l0,448 l-448,0 zM 420-36l-392,0 l0,392 l 392,0 l0-392 z"  />
<glyph unicode="&#x4d;" d="M 346.819,192.189c-9.117-9.363-105.168-100.867-105.168-100.867-4.883-4.996-11.267-7.482-17.651-7.482-6.406,0-12.79,2.486-17.651,7.482 0,0-96.051,91.504-105.19,100.867-9.117,9.363-9.744,26.186 0,36.198 9.766,9.99 23.363,10.774 35.302,0l 87.539-83.955 87.517,83.933c 11.962,10.774 25.581,9.99 35.302,0 9.767-9.991 9.162-26.835 0-36.176z"  />
<glyph unicode="&#x4c;" d="M 346.819,127.811c-9.117,9.363-105.168,100.845-105.168,100.845-4.883,4.995-11.267,7.504-17.651,7.504-6.406,0-12.79-2.509-17.651-7.504 0,0-96.051-91.482-105.19-100.845-9.117-9.363-9.744-26.208 0-36.198 9.766-9.968 23.363-10.774 35.302,0l 87.539,83.933 87.517-83.933c 11.962-10.774 25.581-9.968 35.302,0 9.767,10.013 9.162,26.857 0,36.198z"  />
<glyph unicode="&#x49;" d="M 109.63,134.49c-1.039-4.35-1.688-9.733-1.915-9.733l-0.734,0 c-1.182,10.077-3.461,15.284-6.824,25.374l-17.66,55.162l-16.186,0 l-18.082-54.124c-1.078-3.13-2.35-7.733-3.811-13.024-1.488-5.278-2.54-3.311-3.202-13.388l-0.734,0 c-0.461,10.077-2.396,12.797-5.701,25.445-3.337,12.648-8.174,34.964-14.537,55.091l-15.654,0 l 26.912-90.613l 17.264,0 l 18.641,56.584c 1.786,5.552 3.89,13.902 6.286,23.979l 0.721,0 c 3.13-10.077 5.259-20.355 6.376-23.822l 18.082-56.714l 17.712,0 l 27.276,90.613l-15.485,0 c-11.441-40.282-17.68-66.434-18.745-70.83zM 259.398,134.49c-1.038-4.35-1.688-9.733-1.921-9.733l-0.727,0 c-1.188,10.077-3.454,15.284-6.817,25.374l-17.661,55.162l-16.186,0 l-18.082-54.124c-1.078-3.13-2.35-7.733-3.805-13.024-1.494-5.278-2.546-3.311-3.202-13.388l-0.727,0 c-0.493,10.077-2.396,12.797-5.707,25.445-3.35,12.648-8.187,34.964-14.544,55.091l-15.654,0 l 26.912-90.613l 17.264,0 l 18.641,56.584c 1.78,5.552 3.883,13.902 6.286,23.979l 0.721,0 c 3.123-10.077 5.253-20.355 6.376-23.822l 18.088-56.714l 17.712,0 l 27.263,90.613l-15.485,0 c-11.434-40.282-17.699-66.434-18.745-70.83zM 409.186,134.49c-1.032-4.35-1.688-9.733-1.915-9.733l-0.727,0 c-1.188,10.077-3.493,15.284-6.856,25.374l-17.635,55.162l-16.186,0 l-18.082-54.124c-1.045-3.13-2.344-7.733-3.798-13.024-1.494-5.278-2.585-3.311-3.202-13.388l-0.734,0 c-0.461,10.077-2.363,12.797-5.701,25.445-3.356,12.648-8.193,34.964-14.549,55.091l-15.661,0 l 26.919-90.613l 17.264,0 l 18.647,56.584c 1.773,5.552 3.87,13.902 6.285,23.979l 0.714,0 c 3.123-10.077 5.253-20.355 6.376-23.822l 18.089-56.714l 17.712,0 l 27.263,90.613l-15.485,0 c-11.433-40.282-17.699-66.434-18.738-70.83z"  />
<glyph unicode="&#x44;" d="M 223.994-52.514c-117.175,0-212.508,95.346-212.508,212.521 0,117.168 95.34,212.508 212.508,212.508 117.175,0 212.521-95.34 212.521-212.508-0.001-117.175-95.347-212.521-212.521-212.521zM 223.994,358.074c-109.228,0-198.068-88.84-198.068-198.068 0-109.234 88.847-198.12 198.068-198.12 109.234,0 198.12,88.847 198.12,198.12-0.040,109.228-88.886,198.068-198.12,198.068zM 289.044,91.93l-19.537,0 l-39.736,63.402-40.403-63.402l-18.206,0 l 49.15,75.316-45.819,68.843l 18.991,0 l 36.697-57.097 36.989,57.097l 18.29,0 l-45.819-68.226 49.403-75.933z"  />
<glyph unicode="&#x43;" d="M 224,384c-123.712,0-224-100.288-224-224s 100.288-224 224-224 224,100.288 224,224-100.288,224-224,224zM 224-8c-92.784,0-168,75.216-168,168s 75.216,168 168,168c 92.784,0 168-75.216 168-168 0-92.784-75.216-168-168-168z"  />
<glyph unicode="&#x41;" d="M 416.192,143.872q-38.080,59.136-95.424,88.256 15.232-25.984 15.232-56.448 0-46.144-32.704-79.296t-79.296-32.704-79.296,32.704-32.704,79.296q0,30.464 15.232,56.448-57.344-29.12-95.424-88.256 33.152-51.072 83.328-81.536t 108.416-30.464 108.416,30.464 83.328,81.536zM 236.096,239.744q0,4.928-3.584,8.512t-8.512,3.584q-31.36,0-53.76-22.4t-22.4-53.76q0-4.928 3.584-8.512t 8.512-3.584 8.512,3.584 3.584,8.512q0,21.504 15.232,36.736t 36.736,15.232q 4.928,0 8.512,3.584t 3.584,8.512zM 448,143.872q0-8.512-4.928-17.472-34.944-57.344-94.080-92.288t-124.992-34.496-124.992,34.944-94.080,91.84q-4.928,8.96-4.928,17.472t 4.928,17.472q 34.944,57.344 94.080,91.84t 124.992,34.944 124.992-34.944 94.080-91.84q 4.928-8.96 4.928-17.472z"  />
<glyph unicode="&#x42;" d="M 224-64c-123.703,0-224,100.297-224,224s 100.297,224 224,224 224-100.297 224-224-100.297-224-224-224zM 224,328c-92.777,0-168-75.223-168-168s 75.223-168 168-168 168,75.223 168,168-75.223,168-168,168zM 224,48c-61.852,0-112,50.148-112,112s 50.148,112 112,112 112-50.148 112-112-50.148-112-112-112z"  />
<glyph unicode="&#x3f;" d="M 361.229,318.042L 361.229,377.082 L 58.080,377.082 l0-375.2 l 59.949,0 l0-59.040 L 421.184-57.158 L 421.184,318.042 L 361.229,318.042 z M 88.781,346.394l 241.76,0 l0-313.811 L 88.781,32.582 L 88.781,346.394 z
	 M 390.483-26.458L 148.717-26.458 l0,28.339 l 212.512,0 L 361.229,287.341 l 29.248,0 L 390.477-26.458 z"  />
<glyph unicode="&#x25;" d="M 350.221,107.296L 251.974,11.974L 251.974,354.918L 215.622,354.918L 215.622,14.688L 128.55,106.746L 102.138,81.773L 233.242-56.832L 375.526,81.222 z"  />
<glyph unicode="&#x26;" d="M 361.248,352.666c-17.728,17.638-41.248,27.347-66.246,27.347c-25.005,0-48.499-9.728-66.118-27.379L 142.208,265.978
	c-17.702-17.696-27.456-41.21-27.456-66.227c0-18.899, 5.587-36.954, 15.968-52.282l-47.738-47.808c-17.683-17.638-27.437-41.133-27.456-66.144
	c-0.013-25.030, 9.709-48.531, 27.379-66.202c 17.696-17.664, 41.203-27.405, 66.189-27.405s 48.474,9.734, 66.157,27.411l 86.778,86.797
	c 32.051,32.166, 35.84,82.022, 11.43,118.374l 47.814,47.853C 397.741,256.774, 397.741,316.115, 361.248,352.666z M 276.614,79.488L 189.85-7.283
	c-10.886-10.886-25.376-16.89-40.755-16.89c-15.405,0-29.894,5.997-40.8,16.89c-10.874,10.874-16.858,25.357-16.858,40.768
	c 0.013,15.418, 6.022,29.882, 16.941,40.768l 47.757,47.834c 15.315-10.336, 33.35-15.904, 52.269-15.904c 24.998,0, 48.493,9.715, 66.15,27.366l 12.717,12.717
	C 298.131,124.653, 294.605,97.542, 276.614,79.488z M 182.317,148.32l 12.717,12.73c 10.899,10.886, 25.382,16.89, 40.794,16.89
	c 9.21,0, 18.080-2.195, 26.061-6.246l-12.755-12.755c-10.867-10.867-25.344-16.851-40.749-16.851C 199.168,142.093, 190.304,144.282, 182.317,148.32z
	 M 335.872,245.741l-47.782-47.814c-15.322,10.349-33.357,15.93-52.269,15.93c-24.998,0-48.506-9.728-66.202-27.405l-12.723-12.749
	c-4.051,7.981-6.246,16.851-6.246,26.054c0,15.411, 6.016,29.901, 16.941,40.826l 86.675,86.669c 10.854,10.861, 25.318,16.845, 40.723,16.845
	c 15.443,0, 29.971-5.997, 40.87-16.845C 358.336,304.749, 358.349,268.186, 335.872,245.741z"  />
<glyph unicode="&#x29;" d="M 310.886,347.149l-14.771-36.915c 60.742-24.301, 101.555-84.787, 101.555-150.522c0-89.203-73.024-161.779-162.797-161.779
	c-88.659,0-160.806,72.576-160.806,161.779c0,52.966, 23.392,99.226, 63.725,128.742l 8.998-75.59l 39.482,4.698L 169.83,355.597L 32.198,361.741
	l-1.779-39.718l 81.133-3.629c-48.403-37.069-77.235-94.867-77.235-158.688c0-111.123, 89.965-201.523, 200.55-201.523
	c 111.693,0, 202.56,90.4, 202.56,201.523C 437.434,242.822, 387.763,316.397, 310.886,347.149z"  />
<glyph unicode="&#x3d;" d="M 366.259,300.909l-57.6,0 l0,64 l-153.6,0 l0-64 l-57.6,0 l-25.6,0 l0-32 l 25.6,0 l0-313.6 l 268.8,0 l0,313.6 l 25.6,0 l0,32 L 366.259,300.909 z M 187.059,19.309l-32,0 l0,217.6 l 32,0 L 187.059,19.309 z M 251.059,19.309l-32,0 l0,217.6 l 32,0 
	L 251.059,19.309 z M 308.659,19.309l-32,0 l0,217.6 l 32,0 L 308.659,19.309 z"  />
</font>
</defs>
</svg>
